<mxfile modified="2024-02-14T22:58:31.876Z" host="app.diagrams.net" agent="Mozilla/5.0 (Windows NT 10.0; Win64; x64) AppleWebKit/537.36 (KHTML, like Gecko) Chrome/121.0.0.0 Safari/537.36" etag="F1Xob4DJRl6YLrKiZ2fP" version="22.1.21" type="github">
  <diagram id="WI9T0HZ2pTsCkuznbFz-" name="Page-1">
    <mxGraphModel dx="4040" dy="847" grid="1" gridSize="10" guides="1" tooltips="1" connect="1" arrows="1" fold="1" page="1" pageScale="1" pageWidth="827" pageHeight="1169" math="0" shadow="0">
      <root>
        <mxCell id="0" />
        <mxCell id="1" parent="0" />
        <mxCell id="TF7ZRvsKZ-nj-QB0vBVn-10" value="" style="rounded=1;whiteSpace=wrap;html=1;" vertex="1" parent="1">
          <mxGeometry x="130" y="350" width="731.87" height="280" as="geometry" />
        </mxCell>
        <mxCell id="yIlqXNv4PA9Dnh1hxRCn-44" style="edgeStyle=orthogonalEdgeStyle;rounded=0;orthogonalLoop=1;jettySize=auto;html=1;exitX=0.017;exitY=0.596;exitDx=0;exitDy=0;exitPerimeter=0;strokeColor=#808080;" parent="1" source="TF7ZRvsKZ-nj-QB0vBVn-4" edge="1">
          <mxGeometry relative="1" as="geometry">
            <mxPoint x="206.5" y="419.5" as="targetPoint" />
            <mxPoint x="320.95000000000005" y="335.0855" as="sourcePoint" />
          </mxGeometry>
        </mxCell>
        <mxCell id="yIlqXNv4PA9Dnh1hxRCn-51" value="" style="rounded=0;whiteSpace=wrap;html=1;fillColor=#f5f5f5;strokeColor=none;fontColor=#333333;" parent="1" vertex="1">
          <mxGeometry x="151.5" y="419.5" width="110" height="120" as="geometry" />
        </mxCell>
        <mxCell id="yIlqXNv4PA9Dnh1hxRCn-22" value="Simmons &lt;br&gt;Company" style="aspect=fixed;html=1;perimeter=none;align=center;shadow=0;dashed=0;image;fontSize=12;image=img/lib/mscae/PersonWithFriend.svg;labelBackgroundColor=none;" parent="1" vertex="1">
          <mxGeometry x="181.5" y="443.25" width="50" height="49.5" as="geometry" />
        </mxCell>
        <mxCell id="yIlqXNv4PA9Dnh1hxRCn-62" value="10" style="ellipse;whiteSpace=wrap;html=1;aspect=fixed;fillColor=#4D9900;strokeColor=none;labelBackgroundColor=none;" parent="1" vertex="1">
          <mxGeometry x="231.5" y="427" width="23" height="23" as="geometry" />
        </mxCell>
        <mxCell id="yIlqXNv4PA9Dnh1hxRCn-74" value="" style="rounded=0;whiteSpace=wrap;html=1;fillColor=#EAEDED;fontSize=22;fontColor=#FFFFFF;strokeColor=none;labelBackgroundColor=none;" parent="1" vertex="1">
          <mxGeometry x="961.5" y="196.5" width="539" height="793" as="geometry" />
        </mxCell>
        <mxCell id="yIlqXNv4PA9Dnh1hxRCn-75" value="&lt;span&gt;Lorem ipsum dolor sit amet, consectetur adipiscing elit, sed do eiusmod tempor incididunt ut labore et dolore magna aliqua. Ut enim ad minim veniam, quis nostrud exercitation ullamco laboris nisi ut aliquip ex ea commodo consequat.&lt;/span&gt;" style="text;html=1;align=left;verticalAlign=top;spacingTop=-4;fontSize=14;labelBackgroundColor=none;whiteSpace=wrap;" parent="1" vertex="1">
          <mxGeometry x="1031.5" y="207.5" width="449" height="72" as="geometry" />
        </mxCell>
        <mxCell id="yIlqXNv4PA9Dnh1hxRCn-82" value="1" style="ellipse;whiteSpace=wrap;html=1;aspect=fixed;fillColor=#4D9900;strokeColor=none;labelBackgroundColor=none;" parent="1" vertex="1">
          <mxGeometry x="981.5" y="214" width="23" height="23" as="geometry" />
        </mxCell>
        <mxCell id="yIlqXNv4PA9Dnh1hxRCn-95" value="&lt;span&gt;Lorem ipsum dolor sit amet, consectetur adipiscing elit, sed do eiusmod tempor incididunt ut labore et dolore magna aliqua. Ut enim ad minim veniam, quis nostrud exercitation ullamco laboris nisi ut aliquip ex ea commodo consequat.&lt;/span&gt;" style="text;html=1;align=left;verticalAlign=top;spacingTop=-4;fontSize=14;labelBackgroundColor=none;whiteSpace=wrap;" parent="1" vertex="1">
          <mxGeometry x="1031.5" y="278" width="449" height="72" as="geometry" />
        </mxCell>
        <mxCell id="yIlqXNv4PA9Dnh1hxRCn-96" value="2" style="ellipse;whiteSpace=wrap;html=1;aspect=fixed;fillColor=#4D9900;strokeColor=none;labelBackgroundColor=none;" parent="1" vertex="1">
          <mxGeometry x="981.5" y="284.5" width="23" height="23" as="geometry" />
        </mxCell>
        <mxCell id="yIlqXNv4PA9Dnh1hxRCn-97" value="&lt;span&gt;Lorem ipsum dolor sit amet, consectetur adipiscing elit, sed do eiusmod tempor incididunt ut labore et dolore magna aliqua. Ut enim ad minim veniam, quis nostrud exercitation ullamco laboris nisi ut aliquip ex ea commodo consequat.&lt;/span&gt;" style="text;html=1;align=left;verticalAlign=top;spacingTop=-4;fontSize=14;labelBackgroundColor=none;whiteSpace=wrap;" parent="1" vertex="1">
          <mxGeometry x="1031.5" y="350" width="449" height="72" as="geometry" />
        </mxCell>
        <mxCell id="yIlqXNv4PA9Dnh1hxRCn-98" value="3" style="ellipse;whiteSpace=wrap;html=1;aspect=fixed;fillColor=#4D9900;strokeColor=none;labelBackgroundColor=none;" parent="1" vertex="1">
          <mxGeometry x="981.5" y="356.5" width="23" height="23" as="geometry" />
        </mxCell>
        <mxCell id="yIlqXNv4PA9Dnh1hxRCn-99" value="&lt;span&gt;Lorem ipsum dolor sit amet, consectetur adipiscing elit, sed do eiusmod tempor incididunt ut labore et dolore magna aliqua. Ut enim ad minim veniam, quis nostrud exercitation ullamco laboris nisi ut aliquip ex ea commodo consequat.&lt;/span&gt;" style="text;html=1;align=left;verticalAlign=top;spacingTop=-4;fontSize=14;labelBackgroundColor=none;whiteSpace=wrap;" parent="1" vertex="1">
          <mxGeometry x="1031.5" y="420" width="449" height="72" as="geometry" />
        </mxCell>
        <mxCell id="yIlqXNv4PA9Dnh1hxRCn-100" value="4" style="ellipse;whiteSpace=wrap;html=1;aspect=fixed;fillColor=#4D9900;strokeColor=none;labelBackgroundColor=none;" parent="1" vertex="1">
          <mxGeometry x="981.5" y="426.5" width="23" height="23" as="geometry" />
        </mxCell>
        <mxCell id="yIlqXNv4PA9Dnh1hxRCn-101" value="&lt;span&gt;Lorem ipsum dolor sit amet, consectetur adipiscing elit, sed do eiusmod tempor incididunt ut labore et dolore magna aliqua. Ut enim ad minim veniam, quis nostrud exercitation ullamco laboris nisi ut aliquip ex ea commodo consequat.&lt;/span&gt;" style="text;html=1;align=left;verticalAlign=top;spacingTop=-4;fontSize=14;labelBackgroundColor=none;whiteSpace=wrap;" parent="1" vertex="1">
          <mxGeometry x="1031.5" y="490" width="449" height="72" as="geometry" />
        </mxCell>
        <mxCell id="yIlqXNv4PA9Dnh1hxRCn-102" value="5" style="ellipse;whiteSpace=wrap;html=1;aspect=fixed;fillColor=#4D9900;strokeColor=none;labelBackgroundColor=none;" parent="1" vertex="1">
          <mxGeometry x="981.5" y="496.5" width="23" height="23" as="geometry" />
        </mxCell>
        <mxCell id="yIlqXNv4PA9Dnh1hxRCn-103" value="&lt;span&gt;Lorem ipsum dolor sit amet, consectetur adipiscing elit, sed do eiusmod tempor incididunt ut labore et dolore magna aliqua. Ut enim ad minim veniam, quis nostrud exercitation ullamco laboris nisi ut aliquip ex ea commodo consequat.&lt;/span&gt;" style="text;html=1;align=left;verticalAlign=top;spacingTop=-4;fontSize=14;labelBackgroundColor=none;whiteSpace=wrap;" parent="1" vertex="1">
          <mxGeometry x="1031.5" y="560" width="449" height="72" as="geometry" />
        </mxCell>
        <mxCell id="yIlqXNv4PA9Dnh1hxRCn-104" value="6" style="ellipse;whiteSpace=wrap;html=1;aspect=fixed;fillColor=#4D9900;strokeColor=none;labelBackgroundColor=none;" parent="1" vertex="1">
          <mxGeometry x="981.5" y="566.5" width="23" height="23" as="geometry" />
        </mxCell>
        <mxCell id="yIlqXNv4PA9Dnh1hxRCn-105" value="&lt;span&gt;Lorem ipsum dolor sit amet, consectetur adipiscing elit, sed do eiusmod tempor incididunt ut labore et dolore magna aliqua. Ut enim ad minim veniam, quis nostrud exercitation ullamco laboris nisi ut aliquip ex ea commodo consequat.&lt;/span&gt;" style="text;html=1;align=left;verticalAlign=top;spacingTop=-4;fontSize=14;labelBackgroundColor=none;whiteSpace=wrap;" parent="1" vertex="1">
          <mxGeometry x="1031.5" y="630" width="449" height="72" as="geometry" />
        </mxCell>
        <mxCell id="yIlqXNv4PA9Dnh1hxRCn-106" value="7" style="ellipse;whiteSpace=wrap;html=1;aspect=fixed;fillColor=#4D9900;strokeColor=none;labelBackgroundColor=none;" parent="1" vertex="1">
          <mxGeometry x="981.5" y="636.5" width="23" height="23" as="geometry" />
        </mxCell>
        <mxCell id="yIlqXNv4PA9Dnh1hxRCn-107" value="&lt;span&gt;Lorem ipsum dolor sit amet, consectetur adipiscing elit, sed do eiusmod tempor incididunt ut labore et dolore magna aliqua. Ut enim ad minim veniam, quis nostrud exercitation ullamco laboris nisi ut aliquip ex ea commodo consequat.&lt;/span&gt;" style="text;html=1;align=left;verticalAlign=top;spacingTop=-4;fontSize=14;labelBackgroundColor=none;whiteSpace=wrap;" parent="1" vertex="1">
          <mxGeometry x="1031.5" y="700" width="449" height="72" as="geometry" />
        </mxCell>
        <mxCell id="yIlqXNv4PA9Dnh1hxRCn-108" value="8" style="ellipse;whiteSpace=wrap;html=1;aspect=fixed;fillColor=#4D9900;strokeColor=none;labelBackgroundColor=none;" parent="1" vertex="1">
          <mxGeometry x="981.5" y="706.5" width="23" height="23" as="geometry" />
        </mxCell>
        <mxCell id="yIlqXNv4PA9Dnh1hxRCn-109" value="&lt;span&gt;Lorem ipsum dolor sit amet, consectetur adipiscing elit, sed do eiusmod tempor incididunt ut labore et dolore magna aliqua. Ut enim ad minim veniam, quis nostrud exercitation ullamco laboris nisi ut aliquip ex ea commodo consequat.&lt;/span&gt;" style="text;html=1;align=left;verticalAlign=top;spacingTop=-4;fontSize=14;labelBackgroundColor=none;whiteSpace=wrap;" parent="1" vertex="1">
          <mxGeometry x="1031.5" y="770" width="449" height="72" as="geometry" />
        </mxCell>
        <mxCell id="yIlqXNv4PA9Dnh1hxRCn-110" value="9" style="ellipse;whiteSpace=wrap;html=1;aspect=fixed;fillColor=#4D9900;strokeColor=none;labelBackgroundColor=none;" parent="1" vertex="1">
          <mxGeometry x="981.5" y="776.5" width="23" height="23" as="geometry" />
        </mxCell>
        <mxCell id="yIlqXNv4PA9Dnh1hxRCn-111" value="&lt;span&gt;Lorem ipsum dolor sit amet, consectetur adipiscing elit, sed do eiusmod tempor incididunt ut labore et dolore magna aliqua. Ut enim ad minim veniam, quis nostrud exercitation ullamco laboris nisi ut aliquip ex ea commodo consequat.&lt;/span&gt;" style="text;html=1;align=left;verticalAlign=top;spacingTop=-4;fontSize=14;labelBackgroundColor=none;whiteSpace=wrap;" parent="1" vertex="1">
          <mxGeometry x="1031.5" y="840" width="449" height="72" as="geometry" />
        </mxCell>
        <mxCell id="yIlqXNv4PA9Dnh1hxRCn-112" value="10" style="ellipse;whiteSpace=wrap;html=1;aspect=fixed;fillColor=#4D9900;strokeColor=none;labelBackgroundColor=none;" parent="1" vertex="1">
          <mxGeometry x="981.5" y="846.5" width="23" height="23" as="geometry" />
        </mxCell>
        <mxCell id="yIlqXNv4PA9Dnh1hxRCn-113" value="&lt;span&gt;Lorem ipsum dolor sit amet, consectetur adipiscing elit, sed do eiusmod tempor incididunt ut labore et dolore magna aliqua. Ut enim ad minim veniam, quis nostrud exercitation ullamco laboris nisi ut aliquip ex ea commodo consequat.&lt;/span&gt;" style="text;html=1;align=left;verticalAlign=top;spacingTop=-4;fontSize=14;labelBackgroundColor=none;whiteSpace=wrap;" parent="1" vertex="1">
          <mxGeometry x="1031.5" y="910" width="449" height="72" as="geometry" />
        </mxCell>
        <mxCell id="yIlqXNv4PA9Dnh1hxRCn-114" value="11" style="ellipse;whiteSpace=wrap;html=1;aspect=fixed;fillColor=#4D9900;strokeColor=none;labelBackgroundColor=none;" parent="1" vertex="1">
          <mxGeometry x="981.5" y="916.5" width="23" height="23" as="geometry" />
        </mxCell>
        <mxCell id="TF7ZRvsKZ-nj-QB0vBVn-1" value="PostGres" style="image;aspect=fixed;html=1;points=[];align=center;fontSize=12;image=img/lib/azure2/databases/Azure_Database_PostgreSQL_Server.svg;" vertex="1" parent="1">
          <mxGeometry x="690" y="483.5" width="48" height="64" as="geometry" />
        </mxCell>
        <mxCell id="TF7ZRvsKZ-nj-QB0vBVn-4" value="" style="image;sketch=0;aspect=fixed;html=1;points=[];align=center;fontSize=12;image=img/lib/mscae/VM_Linux.svg;" vertex="1" parent="1">
          <mxGeometry x="363" y="464.5" width="50" height="46" as="geometry" />
        </mxCell>
        <mxCell id="TF7ZRvsKZ-nj-QB0vBVn-5" value="Node.js" style="outlineConnect=0;dashed=0;verticalLabelPosition=bottom;verticalAlign=top;align=center;html=1;shape=mxgraph.aws3.android;fillColor=#8CC64F;gradientColor=none;" vertex="1" parent="1">
          <mxGeometry x="417.5" y="523" width="35" height="40" as="geometry" />
        </mxCell>
        <mxCell id="TF7ZRvsKZ-nj-QB0vBVn-6" value="React" style="shape=image;html=1;verticalAlign=top;verticalLabelPosition=bottom;labelBackgroundColor=#ffffff;imageAspect=0;aspect=fixed;image=https://cdn3.iconfinder.com/data/icons/brands-pack/240/react-128.png" vertex="1" parent="1">
          <mxGeometry x="420" y="462.5" width="30" height="30" as="geometry" />
        </mxCell>
        <mxCell id="TF7ZRvsKZ-nj-QB0vBVn-9" value="" style="image;sketch=0;aspect=fixed;html=1;points=[];align=center;fontSize=12;image=img/lib/mscae/VirtualMachineWindows.svg;" vertex="1" parent="1">
          <mxGeometry x="363" y="517" width="50" height="46" as="geometry" />
        </mxCell>
        <mxCell id="TF7ZRvsKZ-nj-QB0vBVn-11" value="API Layer" style="image;sketch=0;aspect=fixed;html=1;points=[];align=center;fontSize=12;image=img/lib/mscae/VM_Linux.svg;" vertex="1" parent="1">
          <mxGeometry x="509.4" y="492.5" width="50" height="46" as="geometry" />
        </mxCell>
        <mxCell id="TF7ZRvsKZ-nj-QB0vBVn-17" style="edgeStyle=orthogonalEdgeStyle;rounded=0;orthogonalLoop=1;jettySize=auto;html=1;exitX=1;exitY=0.5;exitDx=0;exitDy=0;" edge="1" parent="1" source="TF7ZRvsKZ-nj-QB0vBVn-12" target="TF7ZRvsKZ-nj-QB0vBVn-1">
          <mxGeometry relative="1" as="geometry" />
        </mxCell>
        <mxCell id="TF7ZRvsKZ-nj-QB0vBVn-12" value="" style="shape=image;verticalLabelPosition=bottom;labelBackgroundColor=default;verticalAlign=top;aspect=fixed;imageAspect=0;image=https://www.osgeo.org/wp-content/uploads/GeoServer-370x206.png;clipPath=inset(20.06% 7.67% 20.06% 7.67% round 50%);" vertex="1" parent="1">
          <mxGeometry x="550.0000000000001" y="473.5" width="90.6" height="35.67" as="geometry" />
        </mxCell>
        <mxCell id="TF7ZRvsKZ-nj-QB0vBVn-13" value="Azure Storage &lt;br&gt;Account" style="image;aspect=fixed;html=1;points=[];align=center;fontSize=12;image=img/lib/azure2/storage/Storage_Accounts_Classic.svg;" vertex="1" parent="1">
          <mxGeometry x="550" y="368" width="45" height="36" as="geometry" />
        </mxCell>
        <mxCell id="TF7ZRvsKZ-nj-QB0vBVn-14" value="PostGIS" style="shape=image;verticalLabelPosition=bottom;labelBackgroundColor=default;verticalAlign=top;aspect=fixed;imageAspect=0;image=https://postgis.net/brand.svg;" vertex="1" parent="1">
          <mxGeometry x="746.5" y="473.5" width="28" height="28" as="geometry" />
        </mxCell>
        <mxCell id="TF7ZRvsKZ-nj-QB0vBVn-15" value="Property/User Data" style="shape=image;verticalLabelPosition=bottom;labelBackgroundColor=#ffffff;verticalAlign=top;aspect=fixed;imageAspect=0;image=data:image/svg+xml,PHN2ZyB4bWxuczpjYz0iaHR0cDovL2NyZWF0aXZlY29tbW9ucy5vcmcvbnMjIiB4bWxuczpkYz0iaHR0cDovL3B1cmwub3JnL2RjL2VsZW1lbnRzLzEuMS8iIHhtbG5zOmlua3NjYXBlPSJodHRwOi8vd3d3Lmlua3NjYXBlLm9yZy9uYW1lc3BhY2VzL2lua3NjYXBlIiB4bWxuczpyZGY9Imh0dHA6Ly93d3cudzMub3JnLzE5OTkvMDIvMjItcmRmLXN5bnRheC1ucyMiIHhtbG5zOnNvZGlwb2RpPSJodHRwOi8vc29kaXBvZGkuc291cmNlZm9yZ2UubmV0L0RURC9zb2RpcG9kaS0wLmR0ZCIgeG1sbnM6c3ZnPSJodHRwOi8vd3d3LnczLm9yZy8yMDAwL3N2ZyIgeG1sbnM9Imh0dHA6Ly93d3cudzMub3JnLzIwMDAvc3ZnIiB4bWxuczp4bGluaz0iaHR0cDovL3d3dy53My5vcmcvMTk5OS94bGluayIgdmVyc2lvbj0iMS4xIiBpZD0ic3ZnNDY2NzAiIGlua3NjYXBlOnZlcnNpb249IjAuOTIuMyAoMjQwNTU0NiwgMjAxOC0wMy0xMSkiIHNvZGlwb2RpOmRvY25hbWU9ImRhdGFiYXNlX2FuZF90YWJsZS5zdmciIHg9IjBweCIgeT0iMHB4IiB2aWV3Qm94PSIwIDAgNDIuNzUgNDcuNjkiIHN0eWxlPSJlbmFibGUtYmFja2dyb3VuZDpuZXcgMCAwIDQyLjc1IDQ3LjY5OyIgeG1sOnNwYWNlPSJwcmVzZXJ2ZSI+JiN4YTs8c29kaXBvZGk6bmFtZWR2aWV3IGJvcmRlcmNvbG9yPSIjNjY2NjY2IiBib3JkZXJvcGFjaXR5PSIxIiBmaXQtbWFyZ2luLWJvdHRvbT0iMCIgZml0LW1hcmdpbi1sZWZ0PSIwIiBmaXQtbWFyZ2luLXJpZ2h0PSIwIiBmaXQtbWFyZ2luLXRvcD0iMCIgZ3JpZHRvbGVyYW5jZT0iMTAiIGd1aWRldG9sZXJhbmNlPSIxMCIgaWQ9Im5hbWVkdmlldzQ2NjcyIiBpbmtzY2FwZTpjdXJyZW50LWxheWVyPSJzdmc0NjY3MCIgaW5rc2NhcGU6Y3g9IjIyLjI4MTUzNCIgaW5rc2NhcGU6Y3k9IjE5Ljc5OTQwOSIgaW5rc2NhcGU6cGFnZW9wYWNpdHk9IjAiIGlua3NjYXBlOnBhZ2VzaGFkb3c9IjIiIGlua3NjYXBlOndpbmRvdy1oZWlnaHQ9IjEwMTciIGlua3NjYXBlOndpbmRvdy1tYXhpbWl6ZWQ9IjEiIGlua3NjYXBlOndpbmRvdy13aWR0aD0iMTkyMCIgaW5rc2NhcGU6d2luZG93LXg9Ii04IiBpbmtzY2FwZTp3aW5kb3cteT0iLTgiIGlua3NjYXBlOnpvb209IjYuNjA5MjQwNSIgb2JqZWN0dG9sZXJhbmNlPSIxMCIgcGFnZWNvbG9yPSIjZmZmZmZmIiBzaG93Z3JpZD0iZmFsc2UiPiYjeGE7CTwvc29kaXBvZGk6bmFtZWR2aWV3PiYjeGE7PGcgaWQ9Imc0NjY2OCIgdHJhbnNmb3JtPSJ0cmFuc2xhdGUoLTAuNzUsLTAuNzQ1KSI+JiN4YTsJPHRpdGxlIGlkPSJ0aXRsZTQ2NjE0Ij5QYWdlLTE8L3RpdGxlPiYjeGE7CTxnIGlkPSJncm91cDQ0MDEtMSIgdHJhbnNmb3JtPSJ0cmFuc2xhdGUoMS41LC0xLjUpIj4mI3hhOwkJPHRpdGxlIGlkPSJ0aXRsZTQ2NjE2Ij5EYXRhYmFzZSBhbmQgVGFibGU8L3RpdGxlPiYjeGE7CQk8ZyBpZD0ic2hhcGU0NDAyLTIiPiYjeGE7CQkJPHRpdGxlIGlkPSJ0aXRsZTQ2NjE4Ij5wYXRoNDI3MzwvdGl0bGU+JiN4YTsJCQk8cGF0aCBpZD0icGF0aDQ2NjIwIiBpbmtzY2FwZTpjb25uZWN0b3ItY3VydmF0dXJlPSIwIiBzdHlsZT0iZmlsbDojRkZGRkZGOyIgZD0iTTMxLjc5LDlMMjEuNDQsOS4wOUwwLDkuMjd2MzMuMzcgICAgIGMwLDMuNDIsNy41LDYuMzcsMTcuMjUsNi41NWgwLjM3YzEuMzIsMCwyLjYtMC4wNywzLjgyLTAuMTljMy41Ny0wLjIyLDcuMDgtMS4wNywxMC4zNS0yLjUzYzIuMTktMS4xLDMuNDYtMi40NCwzLjQ2LTMuODNWOC45NyAgICAgTDMxLjc5LDl6Ii8+JiN4YTsJCTwvZz4mI3hhOwkJPGcgaWQ9InNoYXBlNDQwMy00IiB0cmFuc2Zvcm09InRyYW5zbGF0ZSgyMS4xNSwtMC4yMSkiPiYjeGE7CQkJPHRpdGxlIGlkPSJ0aXRsZTQ2NjIzIj5wYXRoNDI3NTwvdGl0bGU+JiN4YTsJCQk8cGF0aCBpZD0icGF0aDQ2NjI1IiBpbmtzY2FwZTpjb25uZWN0b3ItY3VydmF0dXJlPSIwIiBzdHlsZT0iZmlsbDojRTVFNUU1OyIgZD0iTTEwLjM1LDkuMjF2MzcuNDUgICAgIEM3LjA4LDQ4LjEyLDMuNTcsNDguOTcsMCw0OS4xOVY5LjNMMTAuMzUsOS4yMXoiLz4mI3hhOwkJPC9nPiYjeGE7CQk8ZyBpZD0ic2hhcGU0NDA0LTYiPiYjeGE7CQkJPHRpdGxlIGlkPSJ0aXRsZTQ2NjI4Ij5wYXRoNDI3NzwvdGl0bGU+JiN4YTsJCQk8cGF0aCBpZD0icGF0aDQ2NjMwIiBpbmtzY2FwZTpjb25uZWN0b3ItY3VydmF0dXJlPSIwIiBzdHlsZT0iZmlsbDpub25lOyIgZD0iTTAsOS4yN3YzMy4zN2MwLDMuNDIsNy40Niw2LjM3LDE3LjI1LDYuNTVoMC4zNyAgICAgYzkuOTctMC4xMywxNy42My0zLjEsMTcuNjMtNi41NVY4Ljk3TDAsOS4yN3oiLz4mI3hhOwkJCSYjeGE7CQkJCTxwYXRoIGlkPSJwYXRoNDY2MzIiIGlua3NjYXBlOmNvbm5lY3Rvci1jdXJ2YXR1cmU9IjAiIHN0eWxlPSJmaWxsOm5vbmU7c3Ryb2tlOiM1NTZBOEE7c3Ryb2tlLXdpZHRoOjEuNTtzdHJva2UtbWl0ZXJsaW1pdDozOyIgZD0iICAgICBNMCw5LjI3djMzLjM3YzAsMy40Miw3LjQ2LDYuMzcsMTcuMjUsNi41NWgwLjM3YzkuOTctMC4xMywxNy42My0zLjEsMTcuNjMtNi41NVY4Ljk3Ii8+JiN4YTsJCTwvZz4mI3hhOwkJPGcgaWQ9InNoYXBlNDQwNS05IiB0cmFuc2Zvcm09InRyYW5zbGF0ZSgwLjA0NSwtMzMuNDY1KSI+JiN4YTsJCQk8dGl0bGUgaWQ9InRpdGxlNDY2MzUiPnBhdGg0Mjc5PC90aXRsZT4mI3hhOwkJCTxwYXRoIGlkPSJwYXRoNDY2MzciIGlua3NjYXBlOmNvbm5lY3Rvci1jdXJ2YXR1cmU9IjAiIHN0eWxlPSJmaWxsOiNCQUQ4MEE7IiBkPSJNMzUuMjUsNDIuODJjMCwzLjUyLTcuODksNi4zNy0xNy42Myw2LjM3ICAgICBDNy44OSw0OS4xOSwwLDQ2LjM0LDAsNDIuODJjMC0zLjUxLDguMTItNi4zNiwxNy44Ni02LjM2QzI3LjU5LDM2LjQ2LDM1LjI1LDM5LjMxLDM1LjI1LDQyLjgyTDM1LjI1LDQyLjgyeiIvPiYjeGE7CQkJJiN4YTsJCQkJPHBhdGggaWQ9InBhdGg0NjYzOSIgaW5rc2NhcGU6Y29ubmVjdG9yLWN1cnZhdHVyZT0iMCIgc3R5bGU9ImZpbGw6bm9uZTtzdHJva2U6IzU1NkE4QTtzdHJva2Utd2lkdGg6MS41O3N0cm9rZS1taXRlcmxpbWl0OjM7IiBkPSIgICAgIE0zNS4yNSw0Mi44MmMwLDMuNTItNy44OSw2LjM3LTE3LjYzLDYuMzdDNy44OSw0OS4xOSwwLDQ2LjM0LDAsNDIuODJjMC0zLjUxLDguMTItNi4zNiwxNy44Ni02LjM2ICAgICBDMjcuNTksMzYuNDYsMzUuMjUsMzkuMzEsMzUuMjUsNDIuODIiLz4mI3hhOwkJPC9nPiYjeGE7CQk8ZyBpZD0ic2hhcGU0NDA2LTEyIiB0cmFuc2Zvcm09InRyYW5zbGF0ZSgxNC4yNSwtOS41NDc1KSI+JiN4YTsJCQk8dGl0bGUgaWQ9InRpdGxlNDY2NDIiPnJlY3Q0MjgzPC90aXRsZT4mI3hhOwkJCSYjeGE7CQkJCTxyZWN0IGlkPSJyZWN0NDY2NDQiIHk9IjMxLjE5IiBzdHlsZT0iZmlsbDojRkZGRkZGO3N0cm9rZTojNTU2QThBO3N0cm9rZS13aWR0aDoxLjU7c3Ryb2tlLW1pdGVybGltaXQ6MzsiIHdpZHRoPSIyNyIgaGVpZ2h0PSIxOCIvPiYjeGE7CQk8L2c+JiN4YTsJCTxnIGlkPSJzaGFwZTQ0MDctMTQiIHRyYW5zZm9ybT0idHJhbnNsYXRlKDE0LjI1LC0yMS41NDc1KSI+JiN4YTsJCQk8dGl0bGUgaWQ9InRpdGxlNDY2NDciPmxpbmU0Mjg1PC90aXRsZT4mI3hhOwkJCSYjeGE7CQkJCTxwYXRoIGlkPSJwYXRoNDY2NDkiIGlua3NjYXBlOmNvbm5lY3Rvci1jdXJ2YXR1cmU9IjAiIHN0eWxlPSJmaWxsOm5vbmU7c3Ryb2tlOiM1NTZBOEE7c3Ryb2tlLXdpZHRoOjEuNTtzdHJva2UtbWl0ZXJsaW1pdDozOyIgZD0iICAgICBNMCw0OS4xOWgyNy43NSIvPiYjeGE7CQk8L2c+JiN4YTsJCTxnIGlkPSJzaGFwZTQ0MDgtMTciIHRyYW5zZm9ybT0idHJhbnNsYXRlKDE0LjI1LC0xNS41NDc1KSI+JiN4YTsJCQk8dGl0bGUgaWQ9InRpdGxlNDY2NTIiPmxpbmU0Mjg3PC90aXRsZT4mI3hhOwkJCSYjeGE7CQkJCTxwYXRoIGlkPSJwYXRoNDY2NTQiIGlua3NjYXBlOmNvbm5lY3Rvci1jdXJ2YXR1cmU9IjAiIHN0eWxlPSJmaWxsOm5vbmU7c3Ryb2tlOiM1NTZBOEE7c3Ryb2tlLXdpZHRoOjEuNTtzdHJva2UtbWl0ZXJsaW1pdDozOyIgZD0iICAgICBNMCw0OS4xOWgyNy43NSIvPiYjeGE7CQk8L2c+JiN4YTsJCTxnIGlkPSJzaGFwZTQ0MDktMjAiIHRyYW5zZm9ybT0icm90YXRlKDkwLDI1LjM5ODc1LDQ3LjA0Mzc1KSI+JiN4YTsJCQk8dGl0bGUgaWQ9InRpdGxlNDY2NTciPmxpbmU0Mjg5PC90aXRsZT4mI3hhOwkJCSYjeGE7CQkJCTxwYXRoIGlkPSJwYXRoNDY2NTkiIGlua3NjYXBlOmNvbm5lY3Rvci1jdXJ2YXR1cmU9IjAiIHN0eWxlPSJmaWxsOm5vbmU7c3Ryb2tlOiM1NTZBOEE7c3Ryb2tlLXdpZHRoOjEuNTtzdHJva2UtbWl0ZXJsaW1pdDozOyIgZD0iICAgICBNMCw0OS4xOWgxOCIvPiYjeGE7CQk8L2c+JiN4YTsJCTxnIGlkPSJzaGFwZTQ0MTAtMjMiIHRyYW5zZm9ybT0icm90YXRlKDkwLDI5Ljg5ODc1LDUxLjU0Mzc1KSI+JiN4YTsJCQk8dGl0bGUgaWQ9InRpdGxlNDY2NjIiPmxpbmU0MjkxPC90aXRsZT4mI3hhOwkJCSYjeGE7CQkJCTxwYXRoIGlkPSJwYXRoNDY2NjQiIGlua3NjYXBlOmNvbm5lY3Rvci1jdXJ2YXR1cmU9IjAiIHN0eWxlPSJmaWxsOm5vbmU7c3Ryb2tlOiM1NTZBOEE7c3Ryb2tlLXdpZHRoOjEuNTtzdHJva2UtbWl0ZXJsaW1pdDozOyIgZD0iICAgICBNMCw0OS4xOWgxOCIvPiYjeGE7CQk8L2c+JiN4YTsJPC9nPiYjeGE7PC9nPiYjeGE7PC9zdmc+;" vertex="1" parent="1">
          <mxGeometry x="746.5" y="526.5" width="35.83" height="40" as="geometry" />
        </mxCell>
        <mxCell id="TF7ZRvsKZ-nj-QB0vBVn-18" style="edgeStyle=orthogonalEdgeStyle;rounded=0;orthogonalLoop=1;jettySize=auto;html=1;exitX=1;exitY=0.5;exitDx=0;exitDy=0;" edge="1" parent="1" source="TF7ZRvsKZ-nj-QB0vBVn-16" target="TF7ZRvsKZ-nj-QB0vBVn-1">
          <mxGeometry relative="1" as="geometry">
            <Array as="points">
              <mxPoint x="670" y="543.5" />
              <mxPoint x="670" y="515.5" />
            </Array>
          </mxGeometry>
        </mxCell>
        <mxCell id="TF7ZRvsKZ-nj-QB0vBVn-16" value="PostgREST" style="shape=image;verticalLabelPosition=bottom;labelBackgroundColor=default;verticalAlign=top;aspect=fixed;imageAspect=0;image=data:image/png,iVBORw0KGgoAAAANSUhEUgAAAMgAAADICAIAAAAiOjnJAABXpUlEQVR4nOz993cc95kvCFcOXaFzRncjM4BgzqJEBZKSqGxJHsnWaMK1PJ73nXtnz/488wfsmXPu7p5zZ+d4ru3rtWdsU5JFJUuUKIqixJxJkMi5G51jVYfKtQddQLEFSVYgQATqIx8a6K6u+nbVB8/zfJ+I1Go1YHlC13UIgiYmJo4fP/4v//IvIyMjxusQDO/bf+D/+Jf/3hxuYigykS+/drL3g0sjOa4qq1rjGXx2aktH4OUHN7QFHICuZfPFP75x+P/+v/7PsZEhRVEBQAcAAATB9evXv/TSS4899lh7e7skSRAEgSCo6zoIgov01ZcB4H/6p39a7DXcFiAYQhDk5MmTsVjMeEXX9Uq1SpBUMBDw+7woCtlpiygrsVxJlDVNBww+6LouSGqer8EQSJGY38nSlMVqtdMMPTDQXywWTN5kMhmO49xut8fjoSgKgiCTVd/T66uw7ImFoAiGYkNDQ5lMplQqGS+Wy+V0Ou1yuQLBJookPTaGxJGapOT5WlmQ6vIGMKSOpCh5XoBAwGOlLDhqd1h9/oBQEziOT6eSYB26rheLRUmSrFary+XCcRyGYX36FDP/fY8vYtkTC4SmH6wgCPlCfmBgwHyd57iKILKsdVVHO4oiDpq0UfhospAqVBpkjK7pQKkqiLICgmDIzdIkzlBUMNxSLJauXL6s6zOqU5blaDSKYVg4ErbZbARB6IAOAZA+qy4X5bsvZSxjYhmyAgRBCIJcLhdf5q9dvVatVo13VVVJJZOiLDs8Xqfd7rCxGApZMDTPVxP5svFBQ49pul6pyYVy1c6QLIk7WAvL0DRrBSBksO+mJBkSTpdlOZlMSpLU0tzicrmmRRk0w6fvTa4vYhkTy5QWIAhSNAWBkKqqsVisXC4bByiynM3lVA3w+f0+nx9DECdjURSNq4hcTVRUDQJnqCmrarkmSbJKYLDXzhAYYrfbWZstXyiWSsUyzxtXKZfLxWIRx3G3x22z2WAYNsn0PavmYBkTC5ylxbQJD0Isy7rd7oGBgVwuJ4qicUStUkkmE95gOBSO2BmKoUgcQ2RFncyUyjW5TiwdqEs+RdWm8mUMgf12xkYTLE1aWRYh6PjU1PjoiGGwAwDAcdzExEQwGGxubsZxHIKg7yXWl2IZE2vOE0VRlKEZt9tdKVf6+/unX6xTQahVp6IxlmE7Vq8mMNTJWigcK1WELFcVJFWflXl17amXKkKpKrT6HRYCtVIWl8sBgPBUKpNOxoG6wa9rWqlUKhaLMAx3dnZSNKVpWiPFv4eB5U0sg1XGvyAIYhhmd9hhGOY4LhaLaZpmHJPP5Wq1GkVRfn/AYWNxBGYposjX8nxNUjTz4yAAViWFq4ogCLAE7nMyJE7YHHYEgadiUzzPqYpiXC6bzcqyzDDTPKYoyljM98RqxPIm1pxnCUEQRVEUTUMQ1Nvby3Hc7Dv61FSM57nVa9b4AwELjgYcLF8Tc1w1y9VUbdYpVTfaqqKSyPN2hgy5WQuB+zwuiqLSuUIyHudKJYOBiqIUi0We41taWzweD4qiBuG+p5eJ5U0sA3Ms6OktHctWq9VCsZjP5w0qaJrKcVyhyHs9nkgkBEGQ106TGDIUz5cFqS7XDJ04rfFEWStWBEXT2/12BIYdDnu4KZxIJgeHhhRZNq5Vq9WSqeS0/mWZQCCIIEij+FzU+7EksBKIZe4NjYcKw7CFsjjsDo7jhoeH64b89JMWRTGbzhAWi93hcjnsNoaCYQiBoGSe52rSLC8N0QWUBbkmKhYcZSncyVKkhXQ4XbWaMDYyrNQVIgiCgiAUS0UUQQPBIMMwKIqai/meXiuEWIYtZT5UAic8Ho+iKOl0Oh6Pq6piyKJymSuUeAtNt7e12mxWHIWdjCWW43J8rSYpJkEBHZBVlauJNUn22CwBJ4NjWFMopGpaNBbLpFOKMnNwPpcXBMFmtYZCISPaY7LqLufWyiFW49bMIFnAH2BoZnh4uFgq1qkwTZpsOlkpV1z+oNfrtdLTO0QMgWVZmcxwM3HEWVteUlSuImmaRpO4x0ohMORye92+4PDQUDIRN42qYrEYi8XC4bDD4aBpulF2LvYtWUysHGKZ4soUPBiGMQzDsEw8Hk8kEobPado8r1YK+XykuTkQCJA4ZmfIaVGU4SqCrKqaya1puaVoxUoNAAC/g6ZJzMbSBEHgJB2LTWXTKeNsiqJwHMfzPEVRbW1tEAyBwPfcWlnEmvMsQQikGdrhmDa2RkZHyvxMJEeo1WKTE1abw+f1BQI+1kJAECRKajRTqohyo8jRAaBUEauiRBGY20q5rBSBE3anK18oTIyPVyuzLn5FmZiYwDAsGAy63W4cww1+zyzjrqTXiiLW51hVN8MhCMIx3OP2iKI4PDwsy7LBGE3XJybGQEDvWtdNUzRNoD47NZEulSrTdpW5PaxvBcBSVcoUy3aadFktFgJ32VkLRWkQEpucqMyGjzRNy9XRuWoVTdMYhs3RzncbVhSxDMyInNlIIozALMsiMMLzfDweF0XReNJlntdBiLCwkVDQZmMxFIEgsFIVx9JFaHZ7aByp6booq4WywFjwiMeGoLDb7aIslql4KhaLKrJkXLdcLhcLRRRBbDZbKBwy3LN3rU5cgcQydaL5UHEcZxgGw7DRsdF4PG4yhi+XOb68Zu06j9ttITCrhShVhMF4TlE1Q1wBs94tVdVyfE3XdRtNulmLjaEZmiYpKhaNxRNxXZvJruF5PpPN2Ky2plATTdOmc6vue7276LUyiTUnvVPTNJZh7Xa7JEnJZDKfzxtviUItk045vX6HwxnweRgLJqsqX5FSxYqkqMaJGk4K5PkaVxX8DtoxbcQTba3NkiwXisVUMqnNciufz4uSiCBIU1MTNr3jRKZJdfelBK5MYhloDCOCIIigiN/vz+fzfX19kjTjEZUkMZVIul32TVu24BhKYiiOwjfGU1xNNs9j5D/oOiDIqiDLgqz67LTPwcAw7As0EQRx9colvp5aYxyfy+XK5XI4HGbrmF6DwSr9LrK3VjKxbjkg6g8VRmCrzaqpGsdxk5OTMw50AMznMjRjDYabPW4nS5EYCkWzHFcR+Ko0Y6vpMzJQN4wtvmYhUAdDWinC7XTgFgqEsLHRYZ7njYvKspzJZGRZdrvdoXAIhEAYgusm311kcq1wYpkmzox+1AGGYQiCGBwcTKfT5mGypqsAuHb1aquVQZFpKz7H1cYzRQQCDdPIzFbVdb0myjVJhkDQY6MpHLVYLKFwS66Qz2Wz/GzYW5blWCxGkqTL5bLZbMj0OWe8aHcDq1Y+sWY2/LPWDQiALMvCMJxMJicmJszSN65UqvDcjl33OF0upp4dH8vyvZNZQw/OBBDNyhwAyHI1UVFcVovLSjEkwdAWC2urCeK1yxfNS4uimEgkQBBc191NEISRbvq9xFpR0E2xUw9Royhqs9nGx8dHR0dnDtC0aqXs9gU8blcoGEARuFiuJYvlAi+o2oyr85bFBgCSolVFpVgR/HbabaUoAnc5XTAMp/PFeCyqaarxEZ7n8/k8hqKBQMDv98uyDIHQXWJs3RXEMkM9huCBYdjpdGYyGXOHWFdeiiCIwWDTunVdIAAgECRIytBUTpQVw3Y3HGTGSSAIVFQ1W6pCEEThqNNKWRkLTVOs1T4VnyoWivKsc6tYLGazWbvD7nF7SJKEkVvG1qLdjjuCu4JYQEP+8fR3rkNRFJ7n+/r6jFQFANAzmVRbR+e6DRstBG6lSUlRLgzGKqJqhB/NU81Ge3RVA+I5HgSBVUEnRWA2lvX53OlsPp/Pp5MJ0+XBcVy5XHbYHW1tbWb9xYrXiXcLsQw0pgTabDZJkk6dOlWpVIwXNVUlLYzd6WxrjtAUWRPlsWSRq0oVQf5csKiBEzVJqYlyVZQiHqudsVhIMhBskiX5ek+PUJspRFMUJZVKaZrmcrmcTidN06qqrnhu3V3EalSIFEWJojg1NRWNRmUzL1QUCRzftXMnzVCKqnNVMVkopwplBIb0BqkFmr5TEBBkNc9XGRIjcdTJUk6nnbSQOgBGJ8dNyiqKUigWdF1zuT1OpxOB4cY6/RWJu4tYjVFhGIZlWVYUpa+vL5/PGweUeQ5F0f0PP2JlWQxFFE0biedGk0Vs2jbSdVPm3TLkQVXTK4LM1ySGxFp9DhSFXC6P0+vpu9mbz+dEQTCuWObL6XTG7XIFAgEby0IwPLumlemSv7uINUcBIQhitVrPnz8/NjZmHoDh+LqNWxx2h8dpQ2CwdzLTP5VDDYkF3jK2GjJFAU3XCuXp/SOJoV47TREYTTMuf7CQLwwO9Jk1idVqdWpqysqykebmaUO+zq2VKrTuOmI1PksEQTAMu3nz5tTUlFk/DQCQL9AUaQo0BQO6ro8m8+OpkqwabgdwznlmwzWgrGrVurHltVMUgVkZi93ugBA0WyjGY9F6lBrUNC2fz9dqNYIgAoEAwzLGx1dkA4i7kVhzdGI0Gk2lUtFo1HhLVRWCsnSvW7uqo0NW1HihPJnhimVB1bUv01mznggAqIhynq/aKMJKEdNyiyQY1qYCUN/NGzzPzbhaAWBqaqparXZ0dHg9XhRBV2oDiLuUWKYVr2maoirpVPrKlSvGi5qmypJwz+5dG9avlxWlVJViGT6WLakq8MWHDoIzRWMGISRFn8pyJAYHXVYCQ+1WxmZlJA3IZbP5XHa2EE3jOC6dTgeDwaampsZQz4ph1d1LrMZHSODEVHzqk08+MVNfZEnauXvPpi1bAV2TZDWWKQ1O5RVV//PP3RA5VUkWJVUH9IjHZiFQlqEdDnuhWBoZGRWFmQiSIAi5XA5FUYZh/H4/hmGNJUYrg17IYi9gMTEtaCDQ7XX7/X6CIMqNecaFUq7A2RnSRpMOhjR6AAJft32bZoYG9E/ldBBo9jq6Im6Pjd68cUPi4QPRaPTT4x+JgmDQJpvNHjlyhKbpYDAYiUQMubViWHX3SiwDRr4DAiMTExMXL17MZrPG6xAMr+nasHrNGqedxTA0mi6dH4zL9bZHX/Ps62/XMyCUdIl30ETIYwVBMBIJUxbL+MRkoVCQJclQe4VCoVKp4Dju8/sYhjF14sow5KHFXsCioTENkCRJn89nljLrul7iSvl8EdB1CkdpAoO+UR+s2coeQC8L0kA0d6Jn4sJAHAAg2mLZtXvXT3/292vWrKk3XZo5ycjIyBtvvHH+3HnDNb+Sii/uXlVo1isDAIBhmMPhQFF0xgWv6+VyheN5XTfqfBAYhr7EdJ8LEJh1P+i6XqyIl4YTNIn7HbTPTjeHQw/cf//Y2Ggml52su81AEOR5/sKFC811t9ZDDz1EkuScku7lS7K7l1iNzwzDMJqh4VlvuK4DglCr1apGhy0QAlEUhiBQ1/SvP2eDgz5drJ7vjzloYu/65s6g0+mw/8WLP5YU9T9+/at0MqGqqrFJfPfdd0EQ9Hg8a9euNer0V4C9dfeqwjmA6/E781dVURRFNpxPMARiCAR/w8cMzqhDo24smuM/vj5+bSyZ5as4jrU0+ffv2//E089bbXbzE+Vy+dSpU7/5zW9isZiqqpqmNUrTZYq7l1hzipXnOD/Ben8Ps/kMoAPf5inf4oQgKyOJ/Inr45cG46KsEgS+af26gwcf2bRtB4xieh0gCE5OTh6pY2hoyDD1lju37mpVaD42WZHL5fJsYtY0nQiSIC0UMNNCUhOleqnhtzm54Z1AIEjTgEvDCRyFWQveGXS67bYtG9f/6KWXJFG4cPa0UKsZy0ilUr/73e90XXc4HQ77tMG3fFk1D8Rq/MMyZPg8LewOwVh/mS8nEgmjJsygBUXTDMuCdXtcllVRUTRNh0Dg25DLKHc1Cqn1KyMpDIF/9MB6J0vZbbaD+x9MTsVy2dxg3w2D0KqqDgwMfPTRRw6H44knnrDZbItyM8EG3I6dd7vEMi8PQRCGYUaDqNs8552EpmmyLPM8PzIyYmZlgSDodDi8HjcAAbwol2pi3SmvGzrum39Bw5Q3IjX5snB5JOW2juIo0hl0WkjPwUcflWX53/5HOpWMG8fLsnzhwgUEQUKh0ObNm/1+/5034bU6FEW5zUvPm8TK5XLJZJLjOGX6j1tb+vQy5IGu65VK5cyZM43VYCiCNPl9TQEvCICZYiVdrBi7Q/3bO5mMo+taESxVxE+uj9MkRmCIx2rpXrtG09REPPnOW39MxKcM8VQul8+ePdvU1BSLxTo6Ooyd43x/9S+HUQ1AEITT6TQDTYsmsUwMDg4ePnz4xIkTZnnCsoBhPlcqlVsGFgDY7c6g1+1k6UpNzBQryUL5WxlYn8MtNywgKWqiUD7VO0mT2IHN7RYCb45E/stPXsmkk0fef7dWnTG2eJ5//fXX33vvPaNlzZ0EBEHd3d379u179tlnXS7X7Zxq3og1PDx8+PDhycnJ+TrhYgEnLNvuudcXaDIcWrEsN54qfZ0D68+h0VhRNX1wKk9iEy6W2rEmyDL06o7W51/4MYxir/3+P8yP8HXMz/f5lsjlcpqm7d+/3+12346AmAdizUT1q9VcLmc24bz9094ZNGbBGz+4Pe6H9u0LRyL1Wgl5MlWMZkv1JpJfH4T+KjTWJFZFZWgq99GVYQuOrG/xWjD0vnt3q5qSTCTOnTkliYL5kTk/3BkIgpDP581Ej++MeSCW8UisVmt7e/v4+Hhtdv+89GFa640IBgI7tmwJBn2youa46lSey5ZqFIF+Z1YZMNqKACAAQ2CxKp3qjXrstJ0m2wMOv9u5dfOm1PN/kUwmh/pvGsfPYTyCIAvNMCOF2uPxRMIRBLldYsybKty1a9c///M/9/T0cBxnlDctZRh7n/Hx8ePHjzfOmG1u79y55/5gwEOTZJarXh5JJvJlQ97c7nyA2bYis2lbyvFr45AOWPeua3JbQ0H/4w/vmxwbfR8CB3tvNH6OZdn1ddzqtrUwAEEQQZBIJLJ+w/rb1IPzRiwQBAOBgNVqbWtrEwTh9gXpwsF0uV29ejWRSHz+9oFbt2x99NFHGJoGADBdqFwYiCULFRSGtHkqir/lnQHAeK58fjDuZC0PbW4NOJhwU+AHzzwNgXouk85lbm1RjWHBzc3Na9ascblcC7dPNPoP2O12j8eDYuhtnm3e/FgwDLMsyzDMbZ5woaHruqZptVrt1KlTw8PDplMUAACH071xw4ZdO7YTOFIVpViO743m8mUBgub5Qc5yWZ/IcO+cH/Q7aIbErBbinp3bq2XuZm/vyU+Om51zBUEYGhpKJpN79uzZsGGDpmmNMc2FwLxMJZ4fiWUuYom7r3RdRxCkUCj09PScOnWqv7/fFK4YTjz69A82bd3KUoSiqAOT2bO9k+W6a3R+M1hmW3bVW8nLSiLPv3V2UJCVg9s7MQTZunXrP/7jP5aLhUsXL8wMxwOARCLx1ltvGR2RQqHQEr/JBuYhg3TpVwHMmEf1AiwABCYnJ1999dUPP/ywYYoT2NLW9sorP922ZRPLMFxVPNk7cfTKGFeVTEfDPH7HOQ6IUlVQNZ0mMSdDsgzFslaCoqu12ujwkPmRSqXC8zxN04FAwBxKvaA5W7d52hUehG7scms0M+I5fmho6MiRI8lk0jzM5fZs2rxl26b1oaBPkpVolhuI5UbTRRyBFy41ata8Awtl8cZ4miYxl9XS6nO4HPZHDz5WLBR7e3riUzHjMEmSzpw5Y7fbI5HIli1bnE7nEg9vrHBizWlgpOna6TOnX331VaN3sokdu+/5m1d+5vX5AB0o8LUPLw73TWZgo9vxwrCq8ZwwBGa46pneWMDBADq4Ouz2Oq2PPPJoVZT+x3//l3wuYx756aefIghCkuT27dvNtMSliZWcj2VmO80MpBCEkeGRT098evLkSaMgx3irs2vDrt33bOruoiyWQlnoncxcGU0kChUI/C7Bwe+wSGNwcKkqRrNcjq+CAIAhSGsktGv7tubmCIrOBHaModQXLlx47bXXrl27tpTF1QonlgkzBnf69OlPPvkkHo+bJjlBWh588KFdu3Z6nTYEgqKZ0pm+2GSGq9Znnyyop7d+8vqYDE1HEdjFkm7WQuN1Gk3/GVT5UgFGUOzzO3+O48bHx80uJksWK1wVmqziOK63t/eNN964eu2q+TpBkGu7up5+4rGtmzeqOlDiq1eHkx9fG6tJyh3Y5N5qIQFDLR7rPV3hJ3euCrpYRVVzheK7f3r/V7/4Rc/1a2afLWPudXd39wsvvLBx48YlHt5YmcSaKZYxfwbBmzdvvv766z09Pbqmm6Xu7atWv/jyf1m9ZjVNEjVJOdM/eWkkni8Luq4BRreOBWswZOpoGAJDbnb32tDBbR0+Ow2CYC6f/4///P0HR45cvXK5kVUQBO3du/fHP/7xtu3bHA7HEleFK5BYjUmtEATJspxOp0+fPv3hhx+aJamaplGsdcu27fv3PeTzuiVFTRfLp3pjfdHsjJYE9AVqW2U0jjdWiMKQnSH2dIXv7W7uCDpBEJyMxY+fOHHo0KGea1eEWtXsRYPj+K5du5577rm99+91u9woipo1FwuxyNvHCiSWUdZnPBJN0wr5wrFjxwz/ghkPwXD8kceeeOyxx1vDfhRBJlKF072xG+PpbKk6p4P3/C9vdkcAQqDPRm3tDD62raM14JAkJZMvfHj06L/+678O9N6cZtXsnwfLstu3b/+bv/mbvXv3GvVhS38C1Ioiltl2dqaspp7BNzw8/NFHH52/cN5kFYph4ebWgw8/vGf3ThzHRVkdieePXBxOlyra7BkW6mkZafBGWj2BrI24n961OuyxQSBYEWpvvf32O2+/1Xezx+gDaLCKJMk9e/a88sorXeu6rFYrVMfSD3WsKGKZA05AfYZekxOTb7391tlzZyVRMkJsmqb5/P5nnn1+9+5dfo9L0bRrI/Gz/VP9U1lRVr++O8Nt4BYb6qbV5nb/QxtbVoVcJI6m0plTZy8c/uPhs2dOGqwyQNP0vn37nnvuue3bt7NWFoER04eyZGWVgRVFLPOO66CuyMrU1NSxY8cOv3F4Kj5lpr5Ybfb77nvgh3/xw+ZIuFKT8nztoyujZ/tjiqqBC1x/bAZ3GQve7ncc3Nq+c00IAoFCsXT+4qVf/ep/nT93ulI2o0yAy+Xau3fviy++uPf+vSiKwiC8jKrvVw6xbrFK1yEQEkTh+PHjhw4dSswWsxtPZfee+w8++UwkGCAwdCrDnR+YujqaTBbKmmYON1nA5UEgqOi6z0Y9saNzY1uAxFFNkc9duf7+h8dOf3ac54rm8RaLZdu2bT/96U9Xr15tIS23aDTTXHdJs2qFEKsxIGgUy/M8f/rU6aNHj16+ctl8C0WxcEvrvv379uzaZmUoQVJG04UPrwxPpDmpLq5ujQpbmBUCAKBoWrPXdl93ZFO732uj+Wp1PBp/5+233337zUI+Zx4PQdC+h/a9+KMX169fz7JsY5ryAq1w3rESiNU4vF7X9XK5bHitLl40RyZNv9sUiTzz7HMP7L3X53Fpun5zPH22N9oznq6KspFxtVD6Zba5MgKDTorYs6bp/vUtLqtFUuTRick/vf/hB++9Ex0bNg+naXrPnj3PPvvsgw88SFiIxiUtfQ1oYiUQq1EJqqoai8VOnz597NixVCo1ewBAUfSG9Ruefebp7nVdiqIIsnq6d/LE9Ym6k33mPAv1zGZmhukkjq0Ju7d1NnUEHBCo50p8z83e3/zy30cGB8wFQBDU3t7+8ssvb926lWFvZU0uu27wy5tYt0a9zVaflrjSyZMnDx06lEwmGz2l9z3wwF//5JWO9jYEhoq89EnPxNm+WKJY1rT5SZj8WsAQ6LdR+ze2bmzzIQikqvrHx47953/8dmR4sPHrbNmy5cUXX9y+fbvb454jiZcXs5Y3sRr3R9OsKpU+Of7J0aNHZ4P/oBEQ3Lh56zM/eH7X9u00RRXLtRsTmY+vjo6livXe7XrjwPp5xmxMSNf1Zo/t/vXN61u8dobMF0o3+gbefeedzz45rjRUCnV1dT366KMHDhxwuVwogpr5ictIA5pY3sRqVIKiKBqpoadPn254C7DZHY899YP77r/fykzvrUYShXP9sd5olqtJCDybzb5AUUFw5h8UgdeGXQ9ubHVZLUZn27fefvuTEycqt6YWACzLPvTQQ3v27Glubp7Tk2N5ySoDy5hYjeF9GIZ7b/b+7ve/O3funBkQ1HXd7vIcfPoHD+y9py3SJElSrlw51TvxSc8EV5VmSiQWxidkqjBN0wkM7o54d6xuCrkZEkOj8fSp85c/OPJeMnaratxms+3YsePxxx/fsGGDkXa8LLygfwbLkliNlocxW2tkZOT48ePvvfeeabADAEBS9H333//cM890tLUiEJgsCyeuj5/uiyWnTSsdarBg5n2FjSMz3axld1fTlo4ACsOipFy8dPmtN9+Ijo+aXwGG4c2bN//oRz/q6uoy5qAsd1YtS2I1GlUgCKqqWuK4zz777OPjH4+Pj5uHwTCyZm33Qw8+tGfXdgtJ8jVxIlk6dmWsL5qFGvr3LVAy+2z3ZJ0msLaAc2Orr8llrdSEVCZ/6uSnR99/p1qfOGcwOxQK7d69+8CBAzabzcjqWbi13TEsP2LN+VPO5XJXrlx58803z54923iYP9j00ks/evYHz2AYCoHgjbHkH0/3j6WKmqaDEAiAC7gNBGd7F+m6HnKzB7d1BJ0sAAAVvvz663/805/eq1Wr5hehafqFF144ePAgTdON33EhFnYnsZyI1eg+mGk/VK3cuHnjD3/4w5UrVxor5cOR5r955e/23Huf3+OuSVJvNP3Zjckb4ym+JkIN7okFXSQEgi4btb7F2xVxW2mixFd6+gdPnPikv/fGrMtUdzgcO3fuvO+++4ypvo1nWKDl3TEsJ2I1jAg0ChCUsdGxUydPvf3229XqrUxL1mbfvWfvk0893dYcAgC9VBbO9sXO9k/luKqiLazt0qCmARAC2/3Oze0BF2shMXR0dOKTT0/1TbNKNScYhkKhAwcOrFmzhmXZFUMpA8uJWI2smt7i5XKHDh16++23G2UVTpCPPvbUS3/1V81NfgtBpIuV84PxkzcnR5OFmT7IC6loGkPFNIlt7QjsWNUEgkBNkK5evXL41f+cik6a4tbpdO7YsePhRx72eDy6oaBXELeWTZVO4yA4GIZTydRbb7318ccfj46Omm8hCLbz3vv37Xto2+YNFpKsSUrvZObIxeHRZFHVgXrn3QUvQTBIQ+PohmZPm99uZwhVka/23Dzx2anx0VFJFMy/jXvvvXf//v1ul3taCS50WOmOYxlIrDnOBQiCCvnC9evXjfK6W51tQDDS2vrkE0/u3LHd47QLkjyayJ28MXllJFmTZQQCtZlxJAu4TnO7aqPwHaubQp5pBSeI8plz5058+kmtVjEOgCDI6XTu3r17y5YtBEGYVuOKYdXyIFZjeypVVUVR/PSzTw8fPvw5VgFAW3vnY48/8fTjjwQCflFW4ln+w0sjH10bUzQN/E59ab/bOgEAIDCkyc1uXxX0OxhBkidj8QtnTg3euGbuG1wu1/79+7dt2+ZyuUx7a7k7ruZgPvu8L/RuC4KgSqUyMjLy/vvvHz9+XJhJ4QUBQKcZZv+BfS+//JderwfH8HiOe+/C0KXheLEizHcPoq8BCIJBJ7Ou2edkSRJDJ2JTRz861t/XDxhDeeqqMhgMPvbYY52dnSarGuPod3S5X7Z+84fF7/Nu9pxZuD7vuq4ripJMJj/44IOPP/64oaWHjqHoI48+9vDDj25c3w0CWqZUuTQU//TGxGSGqz+oOyEJGp2iEY9tc7ufwFAABOPxxNEPPxifGKu/oxk2+9YtW7du3er3+2VZXuhmV98WRv+wxu4E3w3zI7GMuIooirVabd7b+Zk9+HK53NmzZ1999dWJiQmT0DTDbty46W9f+emWTRt1VSmLyoWB2HsXhqZyvCDfiYJmA6bviiawdr+9K+JBYCiTK9zsH7h5/UoxnzPX0Bxp7ujoqFQqU1NTd7KN+9fCeJQYhhEEYcyCWPw+70ah1dj42PVr1yuVyrz3INV1XZblwcHBy5cvj4yMzN4FSNe1ru4NL/3tK+u61tqtjKRoNyfSZ/tj18ZSorwIfVAxGG712SIeq50iBFnqGxg8ffpcqVQyvwUEQQiCJJKJI0eOmKOglwgMhRMOh7u7u30+3212mZ834/3mzZtvvPFGT08Pz/OmrT1fMPRgIpEoFAoNL2otHaseOrB/34P3e91OTQdiOf6jK6NXRpNcTULhOzf1z7wKjkJdEU/AxQIgoGv6zRvXPzsxYwuaJtRkdLL2cW3pCCoThjHT3Ny8c+fOF154wePx3M7Z5q3Pe39//x9+/we+zDeOeJgvNDYtnnE6wLDT5X7+hy8cfOSRkN+DQNBYqnjyxsSZvmiqWMFgqM7rO7TJMu1cmsS6mz0BJ6NqWjqb7+/rGxm42WhF6bqeqGOpmVYmBgYGstnswYMHvV7vIg8QMCDJUqVakWV5IcS7sSdonC7GMNZNm7c+vO+BDevWIvUEpoFo5p3zQ/mK0DBF4o5KBQSG7TTZ5re7rVS1KtwcHJ6Ixr/KwluyjaVFUaxWq0togEBnR+dTTz119epVQxXO184ZBMFarVYsFue8LssSz5UACEbxmToWO01G3Gwiz6maBt+e4fndYLXgEa/NShEIDHM8d+bUyfGx0UYOYRjGsqw5iHDpjPCY2XnUhWhLS8ve+/eyLLsk+rwDALB27dqXX35506ZNlUplfu+XKIqJROLq1atDQ0NmI+FqpTw02PfBBx9CELJpQzdNkW0Bx5M7OjVN64vm0qXKHfY36gDgsZKrm1wYCusAUCqWLp0/O1knlgG/379r165IJMIwzNIUV8a9CofDRjHjbZ5t3ojldrvvueee7du3zy+rNE1DECSZTP7ud7977bXXRkZGzKeSz+V/+fOfV8plj8cbCfntNLGxIyCqOgQPZXuqddV5R4x3I19eB+wM0ey1YQiiKGqxVBofHS4W8qZY6urq+tu//dvVq1fbbLYl5WWYAxiGURRd/JEnjQMEUBS1WCzze8tM58oLL7yAIMgf//jHgYEBY39Q92yl//TuO4qq/N3f/f2qjjY7RW7vCOiaJivqhcG4oGoL2uRjRt3Xz64BupMmWwMODIWzheLweLRU5MwiDQiC2tra1q9f73Q6b3MO4EJjaTlIzUDebZ7tqy4Bw3BbW9sTTzyBouibb7557do1c+85Pjr81htvOOzOhx95ZNuWjVYa39Tuq7dNA/qi2UypBkF3ohm6BUPtNOlmLQgEJpPpG719VaFm+q6CwWBzc7MxtkOSpCXLqkYsfkhn4VzbZlMGQz6tW7eOIIlypVwoFEZHb5kvycTUL//955qqBoKBoNfjsdI7VocURVM1vVCO6wtV23ULIARaKdxK4QSGALqeyaSHBvvF2QFxKIq2tLQEAgEz3rUsiHWb61y62Q2NstD8hsFA8C9f+ktN1d58881GeyudTrz+2qFqpfz3//APkVDQThO7ukIIAkMgeH4oLsm3us0sRLE6DIJu1sJQhPFrMZ8dHxmURXG2GQkaiUSCweD8XnSJY+kSa86fi/GQcAIPh8NPPfkUSZKvvvrqwMCAuVcYGR58913N6nA88vCBrVs32yzE5ja/rKpqfZ+YL9dgCJq1iuZ5qRAIuqwUWyeWpgNcqTgVnTQNA2N4uM/na0wBWi5C6ztj6RLLQGOll9H4CoCBrdu2EiSRy+VqtdrExIR58Njo8L///N8gCPL6A0Gfy++gd64K1URFkFS+KtX3iPqtrn/zxy8IBO0MwZCYobLL5XImlTKpA8Ow1+t1uVwro67rG2KpE8tA45MAQVDV1OaW5p/97Gc4hr/3/nuNciuTTPzhP39bLvP//7////l9HpeNvH99BJ1WiXrPREZRgVmxAejgvLXZgECAxlESQzRdr4hCuVI1LgPMprw6HA6r1SorCxKWWJpYHsQy0NhilCTJplDTMz94xkJZfvvb35pyS9f1ocHB9955h7ZQjz3++NbNG+00sXNVk6bpOIL0TGS4qojAEADODNKdp5XpBIZgCFxvISGLkmwsxXgTwzCGYXAcl5UFn3axdLCciPW5Bu4AhKLo5s2bjXF+77//vjl3Sde1/r6bv/7VrwiCdDqdTQFvk4fdDYZkTeNqUn80p+ra52h62/yCABBHYRRBdAAQRUWeydgB9fqFLBYLiqL1ze2KSj7+81hOxPrcIwEBSId0QF+9evU//MM/IAhy7NixkZERUx5MxaO//NUvuDL3k1de8bpcPge9d11Eq9cVDsVzkqLNa+dFEEdRDIF0XZcUWVENH9vMSiAIWo7tYm4Ty4lYBm6Z8xAI6ABFUeFI+KWXXrLb7b/5zW9MuaUqytjI0DtvvYnj+HPPPrtuzSo7Tdy3LqLrAI7CNyYyNUmZNr3mxTVvzJ+re2V1ba6mU1VVnyXZCquY+DNYfsT6YgUHQRCbt2xWVCWXy7399ttmwxlNVW/2XFdVlWEY0mIJBwMRr+2eesCiKirD8VxjT1vwVtOF77IeVdWm+QOAEAyB0OfqEWRZNth2l1hXBpYlsea6uABQ07V1Xet+8pOfiKL42WefjY+PG1E8QNdHh4f/589/Lgjiiy++4HE5Ix4bsn5aOx25AIwk8mKDTrwdMSLJqlynKY5h6OcjuJIkSbJ0V7FqfmZCLxbMaA8IghAAIShC03QoFFJVdXh4WBAEYDaCWSoVM9mMKMttbW0uhw2FAZ+dUVSNr4r5ck3V9Dkd9L4tUBhsDzrDHtbnYEAQvHTxwvGPPwZnc0RJkty7d297e7vh0/rej7UMMCfsQ9HUpk2bRFEsl8vvvPNOJpMxXldk+drlS7qmO+z2Jx9/IhIKUiRxX3cYAICarI6nioqqQbdhb+k6yFfFqqCAIEjimIUkjT2hIaNUVU1nMvlCwW61LsRNWJpYxhJrTnWl+aLX6w2Hw6VSieO5YqFoCjauVBwfnyAtFo/Hh+G4z8E4aAKCwFJFrEmyomqGhf0diAVDoIOxRDzWjqATAsDevt7TZ8/VZkcNoijaWofL5bp7JNbyJpYBU9IYQBCEYZhQKMTz/ODgoKIoddkBKopcLBSSqZSm66tWr2YZBkehkNsqyApfFXK8YAz9+g5CCwRBC4a2+m1dEQ8AAGNjEz29A+lkwvBjwTDs8/k62tsjkYhZQ7HiubUSiDVnk2iMjTSiKJqmjY+PGwVY9b6SSiIR53geRtBAIOB2OhgLzlpwAARThTJfk1VNrze9/dZzMFVd7wjYN3cEAF1PZvPDE9GxoQFZkozr4jje2dnZ3d39vcRaTpgTSTR+gCDI6/N6PV5BEEqlUrE4qxN1PZ8vTEajdpvdZndYKMprYxgSgyGwVBVFWZFVtT6t8lvILX16V6i0++0b2/wIDFUlOZsrXL54zmgJqWmaIAjt7e1bt25FEGR5pWR9Z6wEYhlo3NnN6EQYcTqdoVAonU6PjIyoqmp2WS7ksulMDsOJtWvWkAROk2iT28ZVhOl9Ii8Yj/6b6ETzGFXVI27r6pCLIjAERji+/MmxozxXMpZUq9Wampq2b99uhHfuBk/pyiHWFyegGMnyLMu6XC5RFMfGxqS6bqpLETWZTJQrZV0HQuGww8bSJOpkLYAOJAvlsiBr36yppHmMputu1hJ0Ml47zdCkUC0f++hoJp02j7Tb7Z2dnW63m6Zpc/Duwt+SRcOKIlZj8tacdCijNiabzfI8b0g3TVWzmUwynWKtNppmbFab20bRBDa9TywLgqzKivYNuWX8QGIISxGrQi6GxEVR6Ontz+ZyPMeZzdYcDofBLUVRbrPlxtLHiiKWgTn0AkEQRVFvHVNTUxMTE6ZOlGUpnUylsjmaYdauXo0iiJ0mfTY6U6pwVYGrid9cJxpl1wSObOsIsBZClJVknovHYlOxSYND5XIZQZBdO3eFQiGDWCtbaK1AYn1xyIBZhRwOh2u12sjIiFnkM60T4/FypapqQGtrC0tbaBL1ORhdBxL5ck38pjpxmqaqBgPA9s6glcIxFIMRtL+vt+9mjzmLWtf0VatXBQIBHMdXvN9hZRJrTkKz8SKKom63m2EYCIKmpqbMXsuapmayuVy+QDOMxWJxu1w2ijD2iYVpaqmyMluL8RUsMLaQqqZDINDitVtpwmWlMRwbGR6+eOmiMmvYASBAkmQ4HG5qavpeYi1jzPHLG72pfD6fzWaLRqNG3zPjAFkUpmLRXImzO5ztbe0YinhsjJMh6zpR5CoSCH6+eeGcK+nmJWCKQL02OuyxogicTGWGxyYzyYRZd8nzfEdHR1dXlzkuYKXSayUTa05/LNPeYlm2ra2tVCpNTk6aOlHXtER8iuPLGgB2tLeQJMmQaNDFCpKSyJdFWdEAc8jbXB+X+Zuq6WVBjrit61q8mg5AKMFXKtcvXzCKVFVV5TjO4/FEIhGr1WqWRH9rb+xywAon1hcBQRCO406nU1XVSqUSjUbN4kRVUbLZDFfiLRTNMIzb6aAIzEYREAjmyzVBUhRVqycYg8CXmVzT1NF1UVZ9dirssVkIjKFpoVa7cPFCsVAENM3oxKQoit1m7+zsZFl2ponDd41RLmWsTGJ9Mchj7hAlSSqXyzzPl0qlVCrV29vb2ClOEoVobLIsiG6XMxKJEBjqczI0ieX5aqEs8jXJ6GD7RXPe/FXTdYZE7Ywl4mFZilRkeWh4LJtNl8s8CEGArhcLRQRFtmzZ4nF7bo26XFmsWrHEmuOCN341esQPDg5++OGHv/3tb1999dUzZ840DuExoKnq1FSsyFUgFGttDqMo6mDIkIvla2KqWJEVVdeBL7rOG38QZRWGoE2tPguOohhOMLbR4aHJ8TEIhEAQVFTFGM/k8/msVutKLTZcgcT6omsAgqBisdjT0/P++++/9fZbn5749MKFC5OTk6Yjfg4USUqlU3y5Qlhou9XqctgJDHZaSVXVs1xVkBTtz+YGSqoKgWCzz04RmJ2lCBwfGxu70XtTkWaaexlSs7W1tSkUghHE+PwKC/LMD7GWZt6t8exlWY7H45cvX/7www8PHTr08ccfx2KxxrlOjYARhKJZq82O44SmAThtjYRDwYAfBgG/ncFQmKuKhXKtIsjg7AW+6DNTVV3VNIbEvTbKN/0phKtUp6bi8dikwUhJkpLJZCgUCkciDrvdmNV7x2/P1+A2KT4/rSLNRXzRuFkUmFUMtVptdHT0zTfffO+996LRKM/zjUs1mITjOIpM/+f1eAKhSFO4NdAUpBkrYaEcDjuCE3ylaiFwHQA3tvkpAkVg6HRvtFQV60PwP6d2jYtDkM7VxJM3J9t8tjVhN4KiD9z/QCKeHB0eSCdTuj5txYui+P7777Ms+1d/9Vcul2uJdI780r+T74b57I+1RIZ2mDcokUicOXPmgw8+uHTp0ujoqKIojSFqAABQDG9p79i2c/fqVataIk1uh8NisRAkRZAkgiIwDCMwwjA0jiJGCQ+OwhGP7Znda0AAOHkzWqyKWn2v1/A8DMcBKClaslC+MZFpCzhbfXaP07Fly5a9Dx04fvSDTCpp7CsHBgZOnjrZ3d29fcd2lmHnvYf5d0DjuKjF749lDuUy9E59eNttnvU21wRUKpXx8fFz58699dZbn332mVjvKNQoEmwOV1t7x5o1q9asXbth47b29rbmcABH4K89t40mt3QQVUFSVe10/1SOrxqhmdk6n1tOqZqoXB9LNbnZJjdLE9ia1R0PP/zIYO/NaWLVpx+Iothzfdrsc7vdHR0dOIYv9I35GtQpBNdhhlO/M+ZNYpXL5Xw+n8vlJGkxS53AuuGTSqeOHj168uTJvr4+U0npuo6gKMOw4Ujzjl33HHz8ie6uNR6nrW7iAJIoVaqaqula/X+qpsmapiozucU4CkMQVC9wnf6r6Wxy6TpQEeUro6lKTVIbOhOB9SoyCAQ0XR9OFM73RTc0+yJea9Dv23vPrqsX75ucnCzkMoZCTCQShw8fdrlcW7dutbJWw1m6eLduWjwwNO12ua02q9nd+Tue7avM2G8Ik1hnz5594/AbN3pumI2NFxGiKCYTyVw+Z8oqTdMgCAo0hQ8++fSB/fs725p9Xh9FUwSGgiBYqgjRLDeWKCYKfLpYKXC1qiwr8kwFMwiACAJZCMxqIWwM4WJJt41GQIirCh9fHb0+ni5WxM9rDd3IQQV0wG+nD2xue3xHZ2eTq1Dirt3o+/m//T+vH/q9MtsgBATBlpYWh8NhJAAuLozJZLt27nr+h897PJ7Fn6UDAMDQ0NDrr73eMJRrScBsdEbR7JbtO/bed9++/fvXretysDQAAHxV7I9loxkukeOj2VIsw2W4Wo6rlaqCIBs+hVtpMySOMARmpQgbjTsY0m4haAIrVkRF/WJvbdDsHJjhaucGpjqbnAEXSxLExg3r7n/wwf7+gZs9V+W690HX9dE6FuX+fBEYhnEc98ijjyz+ZIrGLZiR071YqrBx9p9ph6IoFggGd993/2OPP7H3nl0+r1uU5EyxXCwLo8nC5eHEpZFkqlARJGmm64IOwBBIYSgwE2uZCePpOlAV5aooJ/O8eRVVB758jKVRhw0AsqJM5bgzfTEna1nf7KVwbNfOHdl8oVwuDQ/0G4HHxll8i+7HgiCoWq3e/hOct8kUdoe9o72j50bPUlCFBoyH5PF4X/jLv37yiSfaIk0sa4UhSJC1q2PpE9fHB6LZXLlarkmSohk8NEhUV2P1dGOj+mJmFGG99Qcwqx4b+nx8yea8wQdRleSzA1EXSzZ7bVYLvqqjTXzgvmuXLsbj8VqZ1/WlNf7E4/G0tLTc5uiv+VSFG9dv/G//9b8NDA7wZV6ra4c7Y4dCECTL8s2bN4eGhuYoYl3XV3V1/fjHL+/fv39DdxeJoaKiXR9LXhyMXx5J3pjI5PmqXpdPZrG++dkG+QMCDX2XG9ppNYqWL/mmpgxTNSBTqp4fjAdd7P3dzR473dra+uOXXioU8seOHpnz0ba2tg0bNng8HgRB7pjgn/lK4PQ2pSnY1LWuy263L5WRJ80tzcGmYLFYlCRptkHUnYBQE+LxeLVanZycbHwdw/DuDRueff4vnv/hD31uJwSCUzl+PFX4+OrYucF4qlCWVQ2BIZP+hsS6JXUa5M83UE9ffojJVgiCxtPFo5dHXaxlO45SFsv9e+9NJuKCIJw/e1pqkPEMw6xevXrv3r0ejwcn7rQDAkVQmqJZlgVve+DxvBELhEAMw5xOp36HRNWM9olGo7FY7MKFC9FotPHdYCj8wo9efu6559wOFsXQUkXsi2beON13dTQlSaoyM0isrt3A6f/mSKz5W+RML9KKII8k8p/2TFgpvLvZS+L4vn0HFA2cHB+bnBg3DdPe3l4URTds2BCJRHx+X91zcecG0IEgCIEQCIO3/wTnIVY4WwgKzLjXIPjOwOBCT0/Pr3/968uXLzdmv3R2rv6v/9v/vn//Qx2tEQgC04XKietjfzo/2DOeKVVEQzIZjvIvSdubZ9zKOZVVrcBXSQz12mmGwBw2K0GSMEoMDw+XuZkprKqq5nK5crlst9tbmltwHEdRFILu0D2d3kZAt/LDbue+3C6x5gRJ7iRUVR0aGjp27NihQ4dMbxwEQWvXdT/3Fy/88Pnnw6GAruvRDHeqd/KDSyM942lBVg2LqsHcXth9WGNsRNeBsiCLsoLBkNtGWSmcJAiv18+Vy/lCjiuVzL5LRvohSZJ2u90Yz7yAS/zqlS++H+tObpJNP4Isy+fOnTt58mSlUjHfRRDkgX0HfvDcD31eF4ZimVLl6kjqyKWRq2NJZLaUb645dWfRN5lFYSjksdppkrZQXavaHn/sMVGWXo39v6axVavVjhw5Isuyx+NBUdRut39Va50FxWJKrMWCoigcxx06dOjYsWNGz496UBl78JHHn3nqyT27tsEQVCiLZ3ujb57pHY7nRUWDPl+DfydX2/jXr2qaIMnZUs3FWvxOBsMQn89DWahckY9NTqqKbHzESK3J5XI2my0UChnacOZh68C3ai2xKFhOxJpp+l/Xd4VC4fr162+++ebg4KB5QKS55ZWf/d2ubds8LmdZkC4MRN+7MNQzkRFktW4Cf3mJzZ2ByS0IBGVVz5VrIACQGOq2UlaGomna7nAWisVCIS/MNtYSRdEoJSIIwphHZ2ZuLf2swOXU0a8+OUDXNd3ICD137lyjiwHFifa2jvt27Q6HQ7KipIqV031Tpwfipnny1XWBdwy3Gj1UReXEzQkQAPwuJoLZ/D7vwQMPJZNJSRJPfPyROXyA47jDhw8LgmCU5zucDmOfOF9ZUwuH5SaxANCYuTo2Nnbo0KGenh6zNrBr/aaDTz61Z9d2K0Oni5X3LgxdHIwnixW4bqEbzoXFfQSgmYNc/39RUsuClOdrQSfjZCwYhrW2tFAUPZVIp5IJfdYdryjKVB12u93v9xubxNkT3mmd/s2xnCSWsQ3WAV2UxUKh0NfX1xg+au/ouGf3bpK0yIqayHMXB+OJPI9AoH6r+cxirt3ATFC8/oOm6+lS9fzAlIMmqqK8rsXr87jv3XOvrCi/RuDr169WZn0QPM+fPHkSQZBqtbpr165AIEAQhDEHtWHLubRE17Ii1qzQqvLVbDY7Z7R9uCmwds1qDENLVWEyzY2liqWaBJsRvyWDRhUmKWo8zx+7NqaDgNtG+exUW2uEph9PptI6oJ899VmjTnznnXeq1SqCINu3bw+FQoYtv2S5tcyIZdzKZDIZnYw2TgpmGMbrdrodrKZqsQzXO5lRFLWez7nY+u8rMOOeBUBNB6JZ/rOeCVXVn7lnTdDBOO22//LXf+33ejUdvHbpnCSKpofl5MmTPM8nEomHH37YDBXPyVxdIlh+xAIAoFAopDPpRmKFmludTjcEgjoIZkvV8XRR/pI0qSUGfaYhpayo0Sx38uYkiSH3dIXXNXu9HudDDz6Aodhvf8dcunCumMsYfx6CIPT09MiynMlkHnzwwe3btzMMM30fGgLlS0RuLUticWWuWCya2SYwjPiDYdZmn3m3KmZKVU1fEkbVn0M9U8LgQVVURpPFY1fHQBCwUrjfwbQ2hy0WC1epoDB8/NhRUagacq5Wq16+fDmVSlUqFQiGN27YwLKs0YLrq1qWLAqW064QmMnF0Xt7e69cvjI0NGTEB2EE3bJj59atW1a1t2m6fm0scbY/LkqKentTTO4MGm2jUlXMlWpcRQw4GRyFaYrsbG91ur2ioifjU4osTf8t1XeCPM9PTEwMDw8zDOOwO4ywz+2X1swjlpnEMiwJVVFnu7cDdYkFESSJojO5aaKsVURJWw6sMmA235IVNZab1okgADywsWVTe4Bh2N07txEk4XQ5P3zvnfHR4dl0Vj2bzV68eFGSpLHxsccfe7ytrQ3HcaMcbbG/ELD8iGVA1/XGrEsdACAIMb07qqYpyheGuy1tzNQkgmBNUsbTJUmd0AEAgeG2gMPncd+zczuEoCSBv/vWGyNDtyINHMedPHkyl8tJorR///6Ojg6v11sfr774zXOXmyqsC62hoaHe3t7h4WHDfodhePW69V1dazpaWzRdvz6WujySWALln98Ws3FMAKiKUiJfznJVt41CYJCx4H6vp33VKqvNns/nKpWKJM3UBRnRrRs3b/A8j6Kow+EwIj+LLreWGbGmtYamj4+PD9Rh2FggBLd2ruruWru6o13T9b7JdM9ERlbUOya16sk3AAQC4NehXvc4xyvwOaPIyK7XdECUlVy5liqUGQsecNkIDGUoSygcbm5tzeRyExMTWv2PyhDetWotkUjE4/FardbS0sIwzB365l+NZakKLSRJUZSp+zRNLWQylTJn/EriqI3Cq4IMAMo8J4Xqc7ea089VN/691WBAn3nHqAK7lZkKmswDAAg0xs7NTQgzWSarWqZYPT8wBQBATVI2tfo8NktrJERRFhRGUBA8+uERWZ5JhYAgKJPJDAwMrF27VpK/vIXOHcbyIxYIglabzel03iKWqiZjk1yhYDwo1kK4WUuyUJ737dEX597jGEwgCIHBOIqgMIwgEAJDMAjChlyq72F1HVB1XVV1RdVkVZNURZJVUVYFedoaatTXMzVBtzp7AYKknuufAnQg5GJZiiBQnSKI7nXrOjo7jh//yCSWpmkURW3cuHHnzp0MzSwFI2D5EUvXdZvNZo5oM5BMTPGlkvHsWQvusdNwNDOPV5zpXWvInNmXIRB0Mpagkwk6mYCTsTOkzULQJGZBERJFIBhS6z24VQ2oSnJFkPiKlK8IOa6SLlbjBT6e5fmaqKom/4366S9eXMcQmCVxuK5rq9Xq0ePHPzt1WhRm4qQGBzs7O/fs2bN3716WZefri98Olh+xAABwOBwej6cxYbdYLGYLRb5Sw3HUZbVE3FYEmvFG36Zf51aCCgAYPUgZEmv12Vp99iYX67XTNgq3UgRjwSkCs+AYgSEYMjeTWNY0UVKFOr2m/1eTuapQnCZZLZHnJzKleK4cz/OKqkAgZCZPq5oGwtCmNt993WEnS5IYms0Xz1y49Nbhw9cuX27c+vl8vmefffbA/gMul0tvaCSxiFhmxDLK+hiGcblcFEUV6urPQDKdGYvGOyJNbqul2WMlMaxUVW4zBdlM1ARBAEdgp4MOOdmQ27om4m4POsJuK1MfkaJruqxpsiQLQpXnZUVRjG4toNGkZFpFwhiCoijiZsmAnYbqo+s0QOeq07u/sWR+Il2aTBUShUqWq+Z4QVIUXQcsONoZcDywoWXXmjCJI+VK5dzFi6+99vrVSxdURTKD2W1tbY8++uijBx9tb283uuUuOquWH7EMbhkttcPhcDweNx1aqUx6aGQ0EvBYGcbnYKwUni8LkqJ+5wuZm3/AYBVL7ljVtLc70hl0shYCBHUYAjVteu+paXq1JhZK5VQ2ly+U+ApfqdQURYFAAEEQDMMp2mK3Wh12m9tuY2kSgevMAiAKh1u8bMTNSIpWEaXrY6lLQ/ELg/EcVxMV1WujHtrQuqHV52TJcqU2FosfPfbxe28fLpVupXVYLJZt27a99NJLra2t5sy6pRAxXE7EmmmJXr9hFE2tWbOmv78/n88b706Mj129fOHe7ZsAlmFpYnXIzdekaJZDIOjbm7K3xlDImuagiS1tgXu6mja0+txW2kYTAABIihZNpAYG+keGhiZGh1KpNMdXKkKtVhMkSZJlRdNUcHq7BsAIgqEYTmAkTlgIwmG3en2+YLi5ua2jpTkcCfotBDqt3wGLhcDa/Y7dq0PXx9OZUsVltdzb3ex3UJoGpLL5N//4xzcOHSoW8qazHkXRJ5548vnnn29vbydworHx3aILreVELDM/RNN1hmbXd68/+dlJk1iTY6PXLl8sci/YbXYriW/p8EczpfFUCYXBbxvoMHs2IDAUcds2t/vv7Qp3T7OKqglCdCo5OTkxPj42PDrR29s3PDQ4PNTPFQvf8OQIjLq8nnBzW2t7Z2trc2tzKOD1eXxevz/otFsdTa5mnz3osZYqNQJFm9wMDIGjk5N/ev/In959JzoxasabrVbrli1bnnrqqa1btxEEYZ5/0SllYDkRa1YvgfW2RNTq1atdLtfA4IDxbrVc7u/rT6Sybpebpqg1IfdZW3Sah+Ct5KdvcpV6CpdxMGi14NtWBQ9u61wdcqEwJElSNpu/cP3mm3987dPjH6VTKVmWtem937dQuIoqJ+NT6VTyysWzMAxTFmpN9/pd99x7/4MPbVjTabcyCIp2+B2z7RSAcqV25fLV//U//72/96bhWTC4FQwGn3zyqW3btrpcTuOVpaABTSwzz7uBaVmCIBRFXb5y2cxxmLZZYDjS2u51u/w+NwKDyUJ5KsfXJEXTtW/KqtnCQ10HvHbqwJa2hza2dTd7UBiSVfXEyVO/+OUvXzv0+1OffpJOJhVZ1mZK9b/LV9BUVVGUWq2amJoaGhy8fOn8tWvXClzF6nA5rCwybYhBkqwc+eDDX/zil1cuXhAEwezT3N7e/swzzzzxxBPhcNjsgrSkshuWJbEMXzMMw+Pj46lUKj07yFRRFBhG21pbVnV2GG2xS3xtMl2UVcBsR/TnT2s+GJrENrT6ntq1qiPooAgsnct/cvyTQ4cOHTny/kBfryh8eRtEmqadTqfH4/F6ve46XC6X1WolSdKosP3ST2maWua5eCw2MT6eTqcz2WyhUNR0UAPAcxcvHT58+P33/lSrls0v7vV6n3766aeeeqrj/2PvS5/jqtLz774vfXtvqdtqtWx5k2RbGA/+YcD+UdhlDAUEKKCYUOEfSvJ18iVTZFJOJcExHicBUjNDjQmWQcgyGFkWtqRWt3rf+25915T6SNdtgWsmWLaElMdVrnLr+qr7nqfPec973vd59uyhKGpdQ9hWYNXPbCkE8J4giqL79u07cODAzZs3wWm00elMfP7Z6edPah0DgeGhPv/BZGRibrljd0Aw/oMjmfvQY0ACRSVubDCyPxFiSLzVVmduzf36139/+dJFd02YxgOO4zzPUxTl9/sjkUgwGBQEgWXZ1VyUZXeMTrvdLlcq1RXG1GVZNgxD07Qf2hc0G40rn/3+6udXnjx+4pVXX9u3f9/Fjz66cuWPqtzyVEMEQTh27NjpF06Pj48DFdreJ7Pxj/un4udHLA8oih46dGhhYeHixYuedkOr1Zqc/nZscvrY4ZGAQA3H/fsSwZmlSkPWV7b4D3Yd9DjnuBAOI6PJ8LG9/Ri6sqO8fn3qb//6b65e/XydOY/rusPDw4cPHx4fHz948GA4HOZ5HkhrrJ4KrB4jOgC6rtdqteXl5YWFhZmZmRs3bqTTaV3X1y2mlmVOTvx3dmme44VcNtvu9uqAawiCGB8ff//993/x1C96JTO2FKUANlLn/TEDRuBwJDw0NDQ2NjY5OQm+u7ZtT351bfdQ6tD+PQxND4R9J0eTtZZWbioUikMP1lhaC9hXPhOBI7tCQirmd10nvVye+Grq2sTVarkM9qRggA8ePHjixIlDhw4lEolYLBaOhFmGxbAHPk9gK6freiqVGhkZeeqpp0qlUi6X+/7776enp+fm5lqtlnexaRqZdPqHdzh+/Pi7v3x3bGzMcywHeBTPf0vovPcGj4/t2+O6LkVSyWTyxIkT8/Pz5XIZvDg3c3Piiyt/8dorOEEGRfaJPbHrd/N38nWvGfoBzwsGJ0AIAjMUEeBplsQVVbuzsDB14xvQagayaCRJHjly5OzZsy+99NLw8DCIctaZJ/Tev9fiFaR2E4mE67oIgtRqtdnZ2aGhoampqevXrwMFuR/9sBiG7d69+8UXXzxz+ozUdUnpVS7d2KfqYUs4UwB7rd4l/1ED/Gqfz/fss89+/PHHgFhgQz4zc/u3//lfL509PXZgX0CgnxyO52vKzFLJhn9Qp9J7w+4fFEV8LEl03Sgcx85nspn0ouPYQD+NJMm9e/e+9957zz//PMdxuq57odKfOQzrXDxSqVQikXju5HM3pm98+OGHU1NTXmauF8Fg8PXXXz916hSKop0uHtEXGOkClApuvowRBEHVanVubm5mZmZDNHf/fJimWavVTNNEEMRbHXLLmY///dKBvUMH9++jMPTJ4b5ctbVUbrRUw/lT+R4EhomVvT74F9zRdV1VXNeBXBiCVr48qqpOTk7WarUNlK3SNK1cLsMwHI1GXddtt9u9OnIoijIMc/fu3UuXLtE0/ejksmAYjsfjBw4cGBwc7E26/gRsGLHu3Llz4cKFa9euNZvNxxxyOY7TarVQFPWIZZnG1JcTk5NfHzgwkoz37QqLh4eitzLlGwvFlmpg3fqBB3HLdV3Lst21AAbDcYIgYAh2utGVaZrFYvHTTz8Fev8PP214yQJgWW0YBo7jKIr2EgtIZF+7dm1ycvKRtkuA8ptTp0699dZbm08sMEgzMzPnz59XVdU0zcevw/ZDRWvDMC5fuhwIBP7qL3/Jssy+RPDcseFaW5vJVB6c01p5zXKcuqxrBih6RsLRWKw/gaJf2muKva0uNjbE8cKaH/2paZqFQuGetvOjfLz5fL7ZbJ45cwY4U/zk+2zYjGXbtqZpW0fk3TTN2Zlvr1z5/Ogvju/fnQqKwt54YHx3rKHca2f9Ucl/13GVjtlUdMO0YRhOJOKDqUEEQyEDWtWp7eLxi7M/HnswXdcflMj9X2HDDAQGU6lz587Nzs4qirIp2QfXdQ3DKJVK3pB3OvqX1yY+/uQTv/Bm0O8Li+wzIwPFuvLFrYxu2uvt+dbypy4EGZZVaSqFejsoMom+2PBQimEYXVU91wAYhkGSHbj0PP4P+ygAnkMikTh+/DjHcQ95tw2bsY4cOcKx7PT0tKIom/KsQcw7MTFx+/btSqUCXlxeWrz4z+eHU4PRaIil6SNDsWJDqSnabKaqdkykJzniqSd3s6jQQqk1m60+LTJ+kdu7JzU6dmTq66/azYbHxf7+/hMnTsRisa3Qa7VRQBBkYGDg8OHDW8VAYGXbL4ojIyODg4OPM+OwDpqmjY+Pnz9//vLly155yVJ68cK/XQj4faef//8wgjyxp083zFJdUXQDRsB5830q7zAMOY67UGzcypSP74u7kLtrYPDMuVeKhfxsl1hgHXRcJxKJvPDCC9FodOuc0D08SJJkWXbzLU+8tDuGYYIgAH3fzYLt2IIoLC4uTk5OFotF8MYURbny2R+SA8ldycGhgUQ8tLJDnM/Xfje9WGlpoD1ind6fC0GlhnJnuZqvt/sQvq8v9tyz/+/qld/Pztz0vseVcuXGNzeeefaZUCj08AvH1gHIRz58Bc7DVjesM4S2NxWu65IEiWKYC7kL8wuapgHS6JqqaDpJs/39/QHJh6OIX2AbslaTNcO0V08P4VV9KfBfLMdFYNjHUn6OjkgcRRC6YRSKxXKpCDb8mqblcjmapjmOk3wSgiKb+9k3Cl4Y85AJ0o0xEPiTHcCPGqDLAoERBEEkv59lmO+++w4kTrs/hUvFgqaoew+MRmNRmsD8PGPZrqIbhZpiAV9nd027bM2yqGPZpmXvjvkTIRGC4Gisv9FoTk9/bXRWGxlM08xmsyRJjoyOsCzbdQtBQEbK8zL++WKH6rz3AhDCW5RJgmAZFifwYrGYzWZX89Su22o1FVmOxfqSAwMkjvk5CkWRTLnVVA2vlWqNWyuP1DBt3bSCAhuRWJ4lRYF3YaTZVrOZpU5HB1Wp7XZbURTLtpIDSVEUEVBBAW054cbHj+1ALDDF9A4kSZKBQEBRlIWFBVmWVwU/jU52aYmk6GAo7PP5Aj6OJjAIhqotVdFNpydLtNZZtRLFW7bNkHg8KBAoygs8w/HLy8vZzJK3ZDQajUK+IEkSz/OiKK7MWhDibqqm/FbAdiAWQG/1DoZhNE3jON5ut+fm5sCC6Lpup9PJ54suDI2Njfh8IoWj8aBQqLVrLU3pmL3UBMuB7bjVlkpgyO6+AEPiIb/I0nSzrWSWs41aFVxp23atViuXy8ARDkOx3qVkx85b24dY6wpzV4ItScJxPJvNNhoNz3W81awriooRdLy/PxSQKAL3szTkOHfyNdMCkxBo0VmtOLUcR9FN07LjYTEgMARB9MfjcltOL6UVRYbWjrRLpVK73e50OkOpIYZleqXYdya3tg+xvBnLG0uwZSNJslwuZzIZb3RlRanV6v5gwCdJIscFRJbCcduxqy1NNW2Qf/dqlIFAaFvtsBQREGiRo/2SxLAciqLZzGp5J8hslUqlSqVCUiRJkpIkgfqTncmqbUWsdU4NoAxZEIRoOFqulOfn50Gw1a19MHPLGRfFff5gclecpWmewUM+drHYaMh6x7JBFO915zuu2zGtltKReHog4sNROB6PS5KUTqezmaxhrB6PWpZVKBTS6TTP86lUChQp9K6JOyrq2lbEAugdQhiGcRLv7+93HOfWrVueT5jrukuLadMww32JcCjIMRRPkwGBMSz7Tr62po62eh8YgizHbWqdjmESGBqROI4mWY7bs3dvrd5YWlzyuOW6brVazefz1Wo1Ho+zLAvqS709/M6ZwLYhsXpzMHDXbksQBJqmIQjK5XKyLIMxNk2j1W6pqhqO9ok+gWcZiaMoHLNsp9JUDQuoa9yzdrJsp60aumGyNCFxNM8yAX9A9PlImppfWPQsu4DsbLFY7HSF/wVBoCjKayjdOVHXNiRW7+CBvzEM8/l8PM8vdeGdZrZbzbt3vg9G+oKhUCQU5GhSZGmOJJbKDVkzO6btTTOgsrStG02l47hQUGACAsuQxEBykBPEXC5XKBSMju69gXq9fvPmTdAIL/p8FEGg3T6Le6z6OXgOPgy2J7Hu8yPtZiwJkgCFLs1mM5O5Z5diGJ2F+TuuC8WTKVHgWJrwcbTI0qpupivNrijM2vB3JzDTdop1uWPaNIGFRYahcNEnHhwZqdUapXJZldveGzBNc74L27L8gUAwGATd8ausgrczq7YzsQDAUQ0MwQiCAA9cFEVVRc3n817tb7vVbLWaqqbGE7t4jhdYUmBJmsIt2yk3ZMsG59P3fJ07pt1UdN0wKQKXVljIiKIvGo0IglgoV+q1ivfbTdMslUq1Wq3RaACLfwzDVpbFtbOjbbwmbnNiAYEaQAsURXme53gOhuH5+flqtepdVimX0osL0b6EJPlDoSBPkxJPExhWqrdl3dI6Fjj38xSzGkqnoei240gcJbCUyNLJZFL0+VY2j812s9Vw1mZE27ZzudzKvGXbwWCQYRiKonZCIL/NiQXOp73A2XVdn+ST/BJN0blcrlareT9SFGX21ncIiscHUgxNchQZEtmwyMp6J1eX1xmJIQjcMe18VW6qGoLAMT+HoXDA7x8bHeGlkG05mcyiJ6QMCsXu3r07Pz/PMEwoHGJopmslDG3jBMQ2JxZA7z4RRVCGYiKRiOM4jUbDExRxXbfZaNTqdVlWk6kUx7ICQ3A06WMpx3bydXmdndjKmmg5DVlvqYZpWVE/L/I0QzPRcKg/kWB9/uzioqLI3s11Xa9Wq8ViMRgIDg0NoRj6GDojNhE7glgePCG8YDBI07TjOOl0ut2+F3GXS8VsJiMFgqIgRiJhjsIDAkuSmKwbLcWQdQNoPHqQdaPe1mqyRhEYTWABgfVLvr7+fl4Qb8/e6pqR3OsusSwLhuHx8fHR0VFP1vH/iPXzxrqwxrbtWCwWDAYhCCoUCrIse5UzrWbj9q0ZjKJC0T6GJhmKiPr5eIBXOma1rdqO6/Q4XiDdg+qm0qm2VJEh9yZCwDdAVeUb39zM5fNyu+WdByQSiXfffffs2bOhcAgBHbFe9de2w04hFkCviBSCIBzHxeNxRVGq1WqvAHOr1crnc7LcTiSHeJYRWIYh8X6/4DhuvtY2zPvMVFwXQhF4ZDA8OhhJRnwQ5GYLxStXv/zowr8uZ9JOV8YYZEqffvrpN954Y3R0FBwjbmte7TBirUt8EwQBdmowDC8tLcmy7F1Wq1aXs1kEJxiWC4VCIssERJYjceAq2FQ7juMC3xsSQ6ISd+7J4ZHBiMCQumF9MfHlP3zwwdRXE6ZhePnVo0ePvvPOO8eOHQsEAiCL5mn1burzeFTYccS6z5e7K5SbSCT8AT8EQZVSRdVUb9RbrebduTnDdnhR5DkWx/FYQOgLCI4Lqbph2Y7pOJALJQL80yO7XjiSigcF3TCmv5357cWL//JPvwERFVC13LNnz5tvvvnqq6+KorjVNB0fEXYcse4rwUNguGsF4RN9yWRS1/R6ow7EOcDFmqamF+bLlWogFAsH/T6RJzBkKCrRJNbWjLqswRB0dDj25jMj8ZCIwnC5Wv27X/3q00/+o1wsejcRRfHtt99++eWXY7GY11bVW4ixLbHjiAWwbt4iCCIgBSS/ROBELp8DQkLgAk1Vs0tZWVEQFAsEguGAJLCUxNECSxIYOtTnP74/cXRPH03iy/nC7/7wx3/8zQezt2a8TnyKok6ePPnaa6898cQTIO0OXt/erIIg6H8CAAD//zHZ4MBKeJ/lAAAAAElFTkSuQmCC;" vertex="1" parent="1">
          <mxGeometry x="575.3" y="523" width="40" height="40" as="geometry" />
        </mxCell>
        <mxCell id="TF7ZRvsKZ-nj-QB0vBVn-19" style="edgeStyle=orthogonalEdgeStyle;rounded=0;orthogonalLoop=1;jettySize=auto;html=1;exitX=1;exitY=0.5;exitDx=0;exitDy=0;exitPerimeter=0;strokeColor=#808080;" edge="1" parent="1" source="TF7ZRvsKZ-nj-QB0vBVn-5" target="TF7ZRvsKZ-nj-QB0vBVn-11">
          <mxGeometry relative="1" as="geometry">
            <mxPoint x="414" y="640" as="targetPoint" />
            <mxPoint x="670" y="593" as="sourcePoint" />
          </mxGeometry>
        </mxCell>
        <mxCell id="TF7ZRvsKZ-nj-QB0vBVn-20" style="edgeStyle=orthogonalEdgeStyle;rounded=0;orthogonalLoop=1;jettySize=auto;html=1;exitX=1;exitY=0.5;exitDx=0;exitDy=0;exitPerimeter=0;strokeColor=#808080;" edge="1" parent="1" source="TF7ZRvsKZ-nj-QB0vBVn-5">
          <mxGeometry relative="1" as="geometry">
            <mxPoint x="540" y="390" as="targetPoint" />
            <mxPoint x="463" y="553.5" as="sourcePoint" />
            <Array as="points">
              <mxPoint x="480" y="543" />
              <mxPoint x="480" y="390" />
            </Array>
          </mxGeometry>
        </mxCell>
      </root>
    </mxGraphModel>
  </diagram>
</mxfile>
